<svg width="79" height="62" viewBox="0 0 79 62" fill="none" xmlns="http://www.w3.org/2000/svg">
<path d="M33.6647 46.1026C33.6647 50.3419 32.1686 54.0513 29.1762 57.2308C26.1837 60.4103 22.518 62 18.1789 62C12.3437 62 7.85511 59.8803 4.71307 55.641C1.57102 51.2503 0 46.3297 0 40.8791C0 32.4005 2.46873 24.6789 7.40623 17.7143C12.3437 10.5983 18.0294 4.69353 24.4631 0L33.2159 9.31136C32.0189 10.3712 30.5975 11.9609 28.9517 14.0806C27.3058 16.0488 25.8845 18.0928 24.6875 20.2125C23.4905 22.3321 22.892 24.2247 22.892 25.8901C22.892 27.707 23.7898 29.3724 25.5852 30.8864C27.3807 32.4005 29.1761 34.293 30.9716 36.5641C32.767 38.6838 33.6647 41.8633 33.6647 46.1026ZM79 46.1026C79 50.3419 77.5038 54.0513 74.5114 57.2308C71.519 60.4103 67.8532 62 63.5142 62C57.679 62 53.1904 59.8803 50.0483 55.641C46.9063 51.2503 45.3352 46.3297 45.3352 40.8791C45.3352 32.4005 47.804 24.6789 52.7415 17.7143C57.679 10.5983 63.3646 4.69353 69.7983 0L78.5512 9.31136C77.3542 10.3712 75.9328 11.9609 74.2869 14.0806C72.6411 16.0488 71.2197 18.0928 70.0228 20.2125C68.8258 22.3321 68.2273 24.2247 68.2273 25.8901C68.2273 27.707 69.125 29.3724 70.9204 30.8864C72.7159 32.4005 74.5114 34.293 76.3068 36.5641C78.1023 38.6838 79 41.8633 79 46.1026Z" fill="#EBEDF5"/>
</svg>
