<svg width="1440" height="723" viewBox="0 0 1440 723" fill="none" xmlns="http://www.w3.org/2000/svg">
<path opacity="0.2" d="M0 -7H-7V0V644V646.648L-5.24704 648.633L0 644C-5.24704 648.633 -5.24136 648.64 -5.23543 648.647L-5.22231 648.661L-5.1915 648.696L-5.15856 648.732C-5.14409 648.748 -5.12837 648.765 -5.11137 648.784C-5.04965 648.851 -4.97123 648.935 -4.87543 649.036C-4.68383 649.237 -4.42283 649.504 -4.08716 649.831C-3.41574 650.485 -2.44622 651.382 -1.13659 652.481C1.48326 654.681 5.45944 657.691 11.1268 661.209C22.4625 668.245 40.5438 677.299 68.0482 685.964C123.029 703.286 215.77 719.092 367.862 714.079C507.938 709.462 615.331 663.122 717.511 618.846L718.421 618.452C820.44 574.245 917.046 532.384 1037.28 533.845C1160.16 535.339 1261.33 520.964 1331.83 506.197C1367.09 498.813 1394.68 491.33 1413.5 485.68C1422.9 482.855 1430.12 480.488 1434.99 478.821C1437.43 477.987 1439.29 477.328 1440.55 476.874C1440.76 476.795 1440.97 476.722 1441.15 476.656C1441.49 476.531 1441.76 476.429 1441.98 476.351C1442.14 476.29 1442.26 476.244 1442.35 476.212L1442.45 476.174L1442.48 476.163L1442.49 476.16C1442.49 476.158 1442.49 476.158 1440 469.616L1442.49 476.158L1447 474.44V469.616V0V-7H1440H0Z" fill="#4BBD97" stroke="#DFE1FF" stroke-width="14"/>
</svg>
