<svg width="203" height="30" viewBox="0 0 203 30" fill="none" xmlns="http://www.w3.org/2000/svg">
<path d="M44.0481 11.4599C44.0481 14.7924 41.9889 16.6967 38.4408 16.6967H36.54V20.2514H32.0098V6.5723H38.4091C41.9889 6.5723 44.0481 8.34963 44.0481 11.4599ZM39.7397 11.5869C39.7397 10.5713 39.1694 10 38.1874 10H36.54V13.269H38.1874C39.2011 13.269 39.7397 12.666 39.7397 11.5869Z" fill="#4BBD97"/>
<path d="M56.7833 14.8878C56.7833 18.2203 54.439 20.4102 50.7641 20.4102C47.0893 20.4102 44.745 18.2521 44.745 14.8878C44.745 11.5553 47.0893 9.39716 50.7641 9.39716C54.439 9.39716 56.7833 11.5553 56.7833 14.8878ZM49.1485 14.9513C49.1485 16.1891 49.7821 17.0143 50.7325 17.0143C51.7145 17.0143 52.3165 16.1891 52.3165 14.9513C52.3165 13.7135 51.6829 12.8883 50.7325 12.8883C49.7821 12.8883 49.1485 13.7135 49.1485 14.9513Z" fill="#4BBD97"/>
<path d="M63.4192 12.9518C62.5639 12.9518 62.0253 13.7453 62.0253 14.9196C62.0253 16.1256 62.5639 16.9191 63.4192 16.9191C64.0528 16.9191 64.4963 16.5699 64.7181 15.7765L68.2662 17.4269C67.4742 19.3311 65.6051 20.4102 63.1658 20.4102C59.7761 20.4102 57.5585 18.2521 57.5585 14.9513C57.5585 11.5871 59.776 9.39716 63.1975 9.39716C65.5101 9.39716 67.3792 10.5397 68.2345 12.4757L64.7498 13.9674C64.4963 13.3327 64.0528 12.9518 63.4192 12.9518Z" fill="#4BBD97"/>
<path d="M77.327 13.6817L81.1603 20.2515H75.9648L74.3175 16.8872L73.7789 17.4268V20.2515H69.4071V5.74722H73.7789V12.317L76.2499 9.55578H81.192L77.327 13.6817Z" fill="#4BBD97"/>
<path d="M89.4285 16.0303L91.8678 18.2202C90.6006 19.6801 88.8899 20.4101 86.7674 20.4101C83.1876 20.4101 80.8433 18.2519 80.8433 14.9829C80.8433 11.6187 83.0925 9.42877 86.5773 9.42877C89.9987 9.42877 92.2163 11.4917 92.2163 14.8242L85.5319 16.0937C85.817 16.792 86.3872 17.1728 87.1158 17.1728C87.8762 17.1728 88.6998 16.7602 89.4285 16.0303ZM85.2784 13.999L87.8445 13.523C87.7811 12.7613 87.3059 12.3169 86.704 12.3169C85.9437 12.3487 85.4368 12.9517 85.2784 13.999Z" fill="#4BBD97"/>
<path d="M100.326 19.7754C99.5975 20.188 98.4254 20.4419 97.2849 20.4419C94.8456 20.4419 93.2616 19.0454 93.2616 16.8238V7.17545H97.6334V10.1588H100.136V12.92H97.6334V16.1573C97.6334 16.7286 98.0136 17.046 98.5838 17.046C98.9006 17.046 99.2807 16.9507 99.5975 16.7603L100.326 19.7754Z" fill="#4BBD97"/>
<path d="M113.822 6.3819C117.877 6.3819 120.475 8.76224 120.475 12.4121V20.2514H115.944V17.3315H111.763V20.2514H107.264V12.4121C107.264 8.76224 109.83 6.3819 113.822 6.3819ZM113.885 10.1587C112.618 10.1587 111.794 11.0474 111.794 12.4121V14.126H115.976V12.4121C115.976 11.0474 115.152 10.1587 113.885 10.1587Z" fill="#4BBD97"/>
<path d="M127.413 12.9518C126.557 12.9518 126.019 13.7453 126.019 14.9196C126.019 16.1256 126.557 16.9191 127.413 16.9191C128.046 16.9191 128.49 16.5699 128.711 15.7765L132.26 17.4269C131.468 19.3311 129.599 20.4102 127.159 20.4102C123.769 20.4102 121.552 18.2521 121.552 14.9513C121.552 11.5871 123.769 9.39716 127.191 9.39716C129.503 9.39716 131.373 10.5397 132.228 12.4757L128.743 13.9674C128.49 13.3327 128.015 12.9518 127.413 12.9518Z" fill="#4BBD97"/>
<path d="M144.298 9.55573V20.2514H139.926V19.1723C139.229 19.9658 138.31 20.4101 137.201 20.4101C134.223 20.4101 132.323 18.2202 132.323 14.856C132.323 11.5552 134.192 9.42877 137.106 9.42877C138.247 9.42877 139.229 9.87311 139.926 10.6666V9.58746H144.298V9.55573ZM139.926 14.9512C139.926 13.7134 139.292 12.8882 138.342 12.8882C137.36 12.8882 136.758 13.7134 136.758 14.9512C136.758 16.189 137.391 17.0142 138.342 17.0142C139.292 17.0142 139.926 16.2207 139.926 14.9512Z" fill="#4BBD97"/>
<path d="M157.667 5.74722V20.2515H153.295V19.1724C152.598 19.9658 151.679 20.4102 150.57 20.4102C147.592 20.4102 145.692 18.2202 145.692 14.856C145.692 11.5553 147.561 9.42883 150.475 9.42883C151.616 9.42883 152.598 9.87316 153.295 10.6666V5.77896H157.667V5.74722ZM153.263 14.9512C153.263 13.7135 152.63 12.8883 151.679 12.8883C150.697 12.8883 150.095 13.7135 150.095 14.9512C150.095 16.189 150.729 17.0142 151.679 17.0142C152.661 17.0142 153.263 16.2208 153.263 14.9512Z" fill="#4BBD97"/>
<path d="M167.709 16.0303L170.148 18.2202C168.881 19.6801 167.17 20.4101 165.048 20.4101C161.468 20.4101 159.124 18.2519 159.124 14.9829C159.124 11.6187 161.373 9.42877 164.858 9.42877C168.279 9.42877 170.497 11.4917 170.497 14.8242L163.812 16.0937C164.097 16.792 164.668 17.1728 165.396 17.1728C166.157 17.1728 166.98 16.7602 167.709 16.0303ZM163.559 13.999L166.125 13.523C166.062 12.7613 165.586 12.3169 164.984 12.3169C164.224 12.3487 163.717 12.9517 163.559 13.999Z" fill="#4BBD97"/>
<path d="M190.012 13.4278V20.2515H185.64V14.6973C185.64 13.8086 185.165 13.2374 184.436 13.2374C183.612 13.2374 183.105 13.9356 183.105 14.9512V20.2515H178.734V14.6973C178.734 13.8086 178.258 13.2374 177.53 13.2374C176.706 13.2374 176.199 13.9356 176.199 14.9512V20.2515H171.827V9.55575H176.199V11.0474C176.928 9.96835 178.005 9.33359 179.367 9.33359C180.983 9.33359 182.25 10.1905 182.82 11.6187C183.517 10.1588 184.721 9.33359 186.305 9.33359C188.459 9.36533 190.012 10.984 190.012 13.4278Z" fill="#4BBD97"/>
<path d="M203 9.55576V19.1724C203 22.0923 200.529 24.2187 197.14 24.2187C195.556 24.2187 193.433 23.6792 192.134 22.9809L193.148 19.9658C194.194 20.4736 195.651 20.8545 196.601 20.8545C197.773 20.8545 198.629 20.1245 198.629 19.1406V17.6172C197.868 18.7598 196.728 19.4263 195.302 19.4263C193.053 19.4263 191.564 17.8394 191.564 15.3638V9.61923H195.968V14.0943C195.968 14.983 196.474 15.5542 197.235 15.5542C198.09 15.5542 198.629 14.856 198.629 13.8404V9.61923H203V9.55576Z" fill="#4BBD97"/>
<path d="M6.86617 5.2041L6.72238 10.4262C6.72238 10.6603 6.81225 10.8944 6.99199 11.0564C7.71096 11.7227 10.3711 13.3974 15.35 13.3974C20.203 13.3974 22.3958 11.6867 22.7553 11.0384C22.8272 10.9124 22.8632 10.7863 22.8632 10.6423L22.9351 5.27613L6.86617 5.2041Z" fill="#18161A"/>
<path d="M14.7568 22.2569C14.0018 21.4645 13.229 20.6722 12.474 19.8619C12.4022 19.7899 12.3303 19.6638 12.3123 19.5738C12.2943 18.7995 12.3123 18.0252 12.3123 17.2148C12.4561 17.1968 12.5819 17.1788 12.7077 17.1788C14.1097 17.1788 15.5297 17.1788 16.9316 17.1788C17.2372 17.1788 17.363 17.2509 17.345 17.593C17.3271 17.9531 17.2911 18.3313 17.345 18.6734C17.4529 19.4477 17.1653 19.988 16.6081 20.4922C15.997 21.0144 15.4218 21.6266 14.7568 22.2569Z" fill="#4BBD97"/>
<path d="M22.7551 11.6146C22.3956 12.2448 20.2207 13.9735 15.3497 13.9735C10.3709 13.9735 7.71069 12.2989 6.99173 11.6326C6.97375 11.6146 6.97375 11.6146 6.97375 11.5966C6.95578 11.5966 6.93781 11.5966 6.91983 11.5966C6.91983 11.7767 6.91983 11.9207 6.91983 12.0648C6.91983 14.8559 6.97375 17.647 6.90186 20.4381C6.88388 21.5005 7.0816 22.3109 7.94436 22.9771C8.50156 23.4093 8.96888 23.9675 9.56203 24.5618C9.56203 21.1224 9.56203 17.7911 9.56203 14.4597C13.1029 14.4597 16.6079 14.4597 20.1129 14.4597C20.1129 14.5498 20.1308 14.6218 20.1308 14.6758C20.1308 16.5306 20.1308 18.3673 20.1308 20.222C20.1308 20.3841 20.023 20.5822 19.9151 20.7082C18.7828 21.8787 17.6504 23.0312 16.518 24.2016C15.9968 24.7418 15.4576 25.246 14.8285 25.8583C14.0016 24.9759 13.1748 24.0936 12.3121 23.1752C12.2582 23.3013 12.2402 23.3373 12.2402 23.3733C12.2402 24.5798 12.2402 25.8043 12.2402 27.0108C12.2402 27.1188 12.2761 27.2629 12.348 27.3349C13.1748 28.2352 14.0196 29.1176 14.8644 29.9999C15.0262 29.8559 15.0801 29.8019 15.134 29.7478C17.6145 27.2088 20.0949 24.6698 22.5753 22.1128C22.7011 21.9867 22.773 21.7526 22.773 21.5906C22.791 18.3853 22.773 15.18 22.773 11.9747C22.7551 11.8307 22.7551 11.7226 22.7551 11.6146Z" fill="#4BBD97"/>
<path d="M6.84837 5.78028L20.7783 13.1272L24.1934 13.0372V4.48376H6.84837V5.78028Z" fill="#010101"/>
<path d="M0 3.43931L0.0539225 3.85348L16.015 8.06716L29.7472 3.85348L29.8191 3.45732L0 3.43931Z" fill="#332E44"/>
<path d="M0 3.43938L13.912 0L29.8191 3.45738L16.0689 7.58103L0 3.43938Z" fill="#1B1A29"/>
<path d="M14.8286 3.7996C15.7716 3.7996 16.5361 3.51742 16.5361 3.16935C16.5361 2.82127 15.7716 2.53909 14.8286 2.53909C13.8855 2.53909 13.121 2.82127 13.121 3.16935C13.121 3.51742 13.8855 3.7996 14.8286 3.7996Z" fill="#161518"/>
<path d="M21.7128 10.9483C21.6409 10.9483 21.587 10.8943 21.587 10.8223V5.61818C21.587 5.29405 21.3713 5.02395 21.0657 4.95192L15.4578 3.69141C15.3859 3.67341 15.35 3.60138 15.3679 3.52935C15.3859 3.45732 15.4578 3.4213 15.5297 3.43931L21.1376 4.71782C21.569 4.82587 21.8746 5.18601 21.8746 5.63619V10.8403C21.8386 10.8943 21.7847 10.9483 21.7128 10.9483Z" fill="#818181"/>
<path d="M20.3467 10.4082C20.3288 10.4082 20.3288 10.4082 20.3288 10.4082C20.185 10.4262 19.1784 10.6423 19.3222 12.569L19.502 13.9196C19.502 13.9196 19.7177 14.0816 20.3467 14.0636C20.9758 14.0996 21.1915 13.9196 21.1915 13.9196L21.3713 12.569C21.4971 10.6423 20.5085 10.4262 20.3467 10.4082Z" fill="#FFCC30"/>
<path d="M20.3289 10.8044C20.257 10.8044 20.203 10.7504 20.203 10.6783V5.47426C20.203 5.15013 19.9874 4.88002 19.6818 4.80799L14.5232 3.34941C14.4513 3.3314 14.3435 3.51147 14.3614 3.43944C14.3794 3.36741 14.4513 3.3314 14.5232 3.34941L19.7357 4.55589C20.1671 4.66393 20.4727 5.02408 20.4727 5.47426V10.6783C20.4547 10.7504 20.4008 10.8044 20.3289 10.8044Z" fill="#FFCC30"/>
<path d="M20.9038 10.0839C20.9038 10.5161 20.6521 10.8583 20.3466 10.8583C20.041 10.8583 19.7894 10.5161 19.7894 10.0839C19.7894 9.65177 20.041 9.30963 20.3466 9.30963C20.6521 9.30963 20.9038 9.65177 20.9038 10.0839Z" fill="#EFB81C"/>
</svg>
