<svg width="28" height="28" viewBox="0 0 28 28" fill="none" xmlns="http://www.w3.org/2000/svg">
<path d="M6.95386 21.8105H18.2038C18.6056 21.8106 18.9945 21.6743 19.3014 21.4258C19.6084 21.1774 19.8137 20.8329 19.8809 20.4532L22.8712 3.60928C22.9387 3.22985 23.1441 2.88554 23.451 2.63732C23.758 2.38911 24.1467 2.25299 24.5483 2.25307H25.6641" stroke="#333333" stroke-width="1.5" stroke-linecap="round" stroke-linejoin="round"/>
<path d="M17.5844 25.438C17.6685 25.438 17.7507 25.4619 17.8207 25.5067C17.8906 25.5515 17.9451 25.6151 17.9773 25.6896C18.0095 25.764 18.0179 25.846 18.0015 25.925C17.9851 26.0041 17.9446 26.0767 17.8851 26.1337C17.8256 26.1907 17.7499 26.2295 17.6674 26.2452C17.5849 26.2609 17.4994 26.2529 17.4217 26.222C17.344 26.1912 17.2776 26.139 17.2308 26.0719C17.1841 26.0049 17.1592 25.9261 17.1592 25.8455C17.1592 25.7375 17.204 25.6338 17.2837 25.5574C17.3635 25.481 17.4716 25.438 17.5844 25.438Z" stroke="#333333" stroke-width="2" stroke-linecap="round" stroke-linejoin="round"/>
<path d="M9.08002 25.438C9.16412 25.438 9.24634 25.4619 9.31627 25.5067C9.38619 25.5515 9.4407 25.6151 9.47288 25.6896C9.50507 25.764 9.51349 25.846 9.49708 25.925C9.48067 26.0041 9.44017 26.0767 9.3807 26.1337C9.32123 26.1907 9.24546 26.2295 9.16298 26.2452C9.08049 26.2609 8.99499 26.2529 8.91729 26.222C8.83959 26.1912 8.77318 26.139 8.72645 26.0719C8.67972 26.0049 8.65479 25.9261 8.65479 25.8455C8.65479 25.7375 8.69959 25.6338 8.77933 25.5574C8.85908 25.481 8.96724 25.438 9.08002 25.438Z" stroke="#333333" stroke-width="2" stroke-linecap="round" stroke-linejoin="round"/>
<path d="M20.5078 16.9203H6.81981C6.06128 16.9203 5.32454 16.6772 4.72666 16.2299C4.12878 15.7825 3.70407 15.1565 3.52 14.4513L1.87576 8.14845C1.84439 8.02824 1.84202 7.90277 1.86885 7.78156C1.89568 7.66035 1.95099 7.5466 2.03058 7.44895C2.11017 7.3513 2.21194 7.27233 2.32816 7.21804C2.44438 7.16375 2.57199 7.13557 2.70128 7.13564H22.2439" stroke="#333333" stroke-width="1.5" stroke-linecap="round" stroke-linejoin="round"/>
</svg>
