<svg width="18" height="18" viewBox="0 0 18 18" fill="none" xmlns="http://www.w3.org/2000/svg">
<g clip-path="url(#clip0)">
<path d="M6.12732 15.3514V15.3275C7.00344 15.3275 9.29201 14.9859 11.6467 11.8286C14.1943 8.41959 13.6653 5.88306 13.4577 5.24204C13.2006 4.08857 12.1573 3.25102 10.9763 3.25102C10.9689 3.25102 10.9047 3.25286 10.8973 3.25286C9.49405 3.29143 8.38283 4.46878 8.4214 5.87939C8.43976 6.46714 8.66936 7.03837 9.06793 7.48837L9.07104 7.49205C9.09004 7.51451 9.10764 7.53533 9.12854 7.55449C9.24977 7.68306 9.37099 7.79143 9.49772 7.88327C9.85405 8.34245 9.72548 8.98531 9.11936 9.79714C8.50956 10.6145 7.88507 10.9194 7.26793 10.7008C6.82711 10.3794 6.3165 10.2122 5.78201 10.2122C5.7765 10.2122 5.7067 10.2159 5.70119 10.2159C5.0216 10.2361 4.38793 10.5263 3.9214 11.0222C3.45487 11.5182 3.20691 12.1794 3.22895 12.8608C3.26752 14.2494 4.38793 15.3624 5.77834 15.3624H5.84446C5.9014 15.3624 5.99691 15.3514 6.12732 15.3514Z" fill="#4BBD97"/>
<path d="M5.51201 17.2984C6.61772 17.7649 7.78956 18 8.99997 18C13.9628 18 18 13.9629 18 9C18 4.03714 13.9628 0 8.99997 0C4.03711 0 -3.05176e-05 4.03714 -3.05176e-05 9C-3.05176e-05 10.6953 0.473847 12.3484 1.37201 13.7792C1.56119 14.0804 1.95793 14.1704 2.25915 13.9812C2.55854 13.7939 2.65038 13.3971 2.46119 13.0959C1.69344 11.8708 1.28568 10.4547 1.28568 9C1.28568 4.74612 4.74609 1.28571 8.99997 1.28571C13.2538 1.28571 16.7143 4.74612 16.7143 9C16.7143 13.2539 13.2538 16.7143 8.99997 16.7143C7.96221 16.7143 6.95752 16.5122 6.00977 16.1137C5.68283 15.9778 5.3063 16.1302 5.16854 16.4571C5.03079 16.7841 5.18507 17.1606 5.51201 17.2984Z" fill="#4BBD97"/>
</g>
<defs>
<clipPath id="clip0">
<rect width="18" height="18" fill="white"/>
</clipPath>
</defs>
</svg>
