<svg width="16" height="18" viewBox="0 0 16 18" fill="none" xmlns="http://www.w3.org/2000/svg">
<path d="M13.2116 10.718C14.215 10.6758 15.037 10.1142 15.037 8.95452C15.037 8.25082 14.3431 4.46982 13.9913 3.14897C13.4888 1.25671 12.2524 0.555115 10.4664 0.555115C8.85985 0.555115 7.596 0.9893 6.71145 1.37C4.89237 2.15323 3.42867 2.66623 0.962891 2.66623V9.6526C3.13452 9.93478 5.48771 10.3253 6.874 15.1021C7.21389 16.2702 7.558 17.444 8.86759 17.444C11.294 17.444 10.9822 13.5518 10.4129 11.2416C11.1919 10.9136 12.3601 10.7546 13.2116 10.718ZM13.0659 9.31623C11.1314 9.4246 9.50515 10.0291 8.75922 10.4112C9.06252 11.6406 9.40734 12.8474 9.40734 14.3048C9.40734 16.0676 8.85774 16.8846 8.22582 14.7087C6.82334 9.882 4.66719 8.82293 2.3703 8.29586V4.07363C4.14434 4.02297 5.69178 3.34108 7.26737 2.66271C8.48548 2.13845 10.6796 1.61067 11.7823 2.23063C12.6936 2.81893 12.5663 3.45086 11.9878 3.39948L11.4453 3.37697C10.8717 3.31082 10.7979 4.12852 11.3686 4.17989C11.3686 4.17989 12.2982 4.22352 12.5965 4.26082C13.2833 4.34737 13.3199 5.39167 12.5684 5.35226C12.2468 5.33537 11.764 5.32341 11.764 5.32341C11.2032 5.3016 11.1483 6.082 11.6648 6.14815C11.6648 6.14815 12.1673 6.15167 12.904 6.21782C13.6408 6.28397 13.6626 7.35008 12.9012 7.31771C12.2904 7.29167 12.149 7.29871 12.149 7.29871C11.6212 7.30223 11.5339 8.02211 12.0497 8.08334L13.0307 8.20086C13.7872 8.29234 13.8083 9.27471 13.0659 9.31623Z" fill="#999999"/>
</svg>
