<svg width="16" height="18" viewBox="0 0 16 18" fill="none" xmlns="http://www.w3.org/2000/svg">
<path d="M10.4136 6.75756C10.9822 4.4473 11.2947 0.555115 8.86759 0.555115C7.558 0.555115 7.21389 1.72889 6.874 2.89774C5.487 7.67449 3.13452 8.06434 0.962891 8.34652V15.3329C3.42796 15.3329 4.89237 15.8459 6.71145 16.6291C7.596 17.0098 8.85985 17.444 10.4664 17.444C12.2524 17.444 13.4888 16.7424 13.9913 14.8502C14.3431 13.5293 15.037 9.7483 15.037 9.0446C15.037 7.88419 14.215 7.32334 13.2116 7.28041C12.3601 7.24452 11.1919 7.08548 10.4136 6.75756ZM13.03 9.79826L12.049 9.91578C12.049 9.91578 11.6205 10.6962 12.1483 10.7004C12.1483 10.7004 12.2897 10.7074 12.9005 10.6814C13.6619 10.649 13.6401 11.7152 12.9033 11.7813L11.6641 11.851C11.1476 11.9171 11.2025 12.6975 11.7633 12.6757C11.7633 12.6757 12.2461 12.6637 12.5677 12.6469C13.3192 12.6074 13.2826 13.6524 12.5958 13.7383C12.2974 13.7756 11.3679 13.8192 11.3679 13.8192C10.7972 13.8699 10.871 14.6883 11.4446 14.6222L11.9871 14.6003C12.5656 14.5483 12.6929 15.1809 11.7816 15.7692C10.6789 16.3892 8.48478 15.8614 7.26667 15.3371C5.69178 14.658 4.14434 13.9762 2.3703 13.9255V9.70326C4.66648 9.17619 6.82404 8.11712 8.22582 3.29041C8.85774 1.11456 9.40734 1.93156 9.40734 3.69434C9.40734 5.15171 9.06252 6.35856 8.75922 7.58793C9.50585 7.97004 11.1314 8.57452 13.0659 8.68289C13.8083 8.72441 13.7872 9.70678 13.03 9.79826Z" fill="white"/>
</svg>
