<svg width="43" height="24" viewBox="0 0 43 24" fill="none" xmlns="http://www.w3.org/2000/svg">
<path d="M0 4C0 1.79086 1.79086 0 4 0H39C41.2091 0 43 1.79086 43 4V20C43 22.2091 41.2091 24 39 24H4C1.79086 24 0 22.2091 0 20V4Z" fill="#F72A29"/>
<path d="M9.2251 17V7.71973H10.7422V15.6987H14.6714V17H9.2251ZM16.271 17V7.71973H17.7881V17H16.271ZM25.5322 7.71973H27.1064L23.8564 17H22.2568L19.0195 7.71973H20.5811L22.5171 13.4897C22.6187 13.7648 22.7266 14.1203 22.8408 14.5562C22.9551 14.9878 23.0291 15.3094 23.063 15.521C23.118 15.1994 23.2026 14.827 23.3169 14.4038C23.4312 13.9806 23.5243 13.6675 23.5962 13.4644L25.5322 7.71973ZM33.5811 17H28.3315V7.71973H33.5811V9.00195H29.8486V11.5283H33.3462V12.7979H29.8486V15.7114H33.5811V17Z" fill="white"/>
</svg>
