<svg width="16" height="16" viewBox="0 0 16 16" fill="none" xmlns="http://www.w3.org/2000/svg">
<path d="M7.34096 14.056C7.65136 14.056 7.90416 14.3072 7.90416 14.6176C7.90416 14.928 7.65296 15.1808 7.34096 15.1808C3.37616 15.1808 0.160156 11.9664 0.160156 8.00001C0.160156 4.03361 3.37616 0.819214 7.34096 0.819214C11.3074 0.819214 14.5218 4.03361 14.5218 8.00001C14.5218 8.31041 14.2706 8.56322 13.9602 8.56322C13.6498 8.56322 13.397 8.31202 13.397 8.00001C13.397 4.66081 10.6802 1.94401 7.34096 1.94401C4.00176 1.94401 1.28496 4.66081 1.28496 8.00001C1.28496 11.3392 4.00176 14.056 7.34096 14.056ZM13.8274 10.7472L11.8146 8.12322H15.8402L13.8274 10.7472Z" fill="#4BBD97"/>
</svg>
