<svg width="24" height="22" viewBox="0 0 24 22" fill="none" xmlns="http://www.w3.org/2000/svg">
<path d="M21.7915 1.86735C21.1992 1.27504 20.496 0.805261 19.722 0.484851C18.9481 0.164441 18.1186 -0.000314097 17.2809 4.49544e-07C16.4432 0.000314996 15.6139 0.165693 14.8402 0.486684C14.0665 0.807675 13.3636 1.27799 12.7717 1.87074L11.9991 2.65274L11.233 1.87243L11.228 1.86745C10.636 1.27542 9.93311 0.805797 9.15959 0.485391C8.38607 0.164986 7.55701 7.58822e-05 6.71975 7.58822e-05C5.8825 7.58822e-05 5.05344 0.164986 4.27992 0.485391C3.5064 0.805797 2.80356 1.27542 2.21153 1.86745L1.86735 2.21163C0.671706 3.40728 0 5.02893 0 6.71983C0 8.41073 0.671706 10.0324 1.86735 11.228L10.9512 20.3118L11.977 21.3865L12.0015 21.362L12.028 21.3886L12.9891 20.3745L22.1357 11.2279C23.3295 10.0313 24 8.40999 24 6.71968C24 5.02937 23.3295 3.40808 22.1357 2.21148L21.7915 1.86735Z" fill="#7A7A7A"/>
</svg>
