<svg width="22" height="24" viewBox="0 0 22 24" fill="none" xmlns="http://www.w3.org/2000/svg">
<path d="M18.3333 16.942C19.327 16.942 20.1667 17.2898 20.8548 17.9878C21.5429 18.6833 21.8857 19.5037 21.8857 20.4441C21.8857 21.4237 21.533 22.2612 20.825 22.9567C20.117 23.6522 19.2873 24 18.3333 24C17.3794 24 16.5472 23.6522 15.8417 22.9543C15.1362 22.2588 14.7809 21.4212 14.7809 20.4416C14.7809 20.0645 14.8008 19.8025 14.8381 19.6506L6.18812 14.6816C5.46274 15.3208 4.62308 15.6416 3.66667 15.6416C2.67299 15.6416 1.81346 15.2841 1.08808 14.569C0.362692 13.8539 0 13.0065 0 12.0269C0 11.0473 0.362692 10.2 1.08808 9.4849C1.81346 8.7698 2.67299 8.41224 3.66667 8.41224C4.6206 8.41224 5.46274 8.73306 6.18812 9.37224L14.7809 4.45959C14.7039 4.08245 14.6667 3.80082 14.6667 3.61224C14.6667 2.63265 15.0294 1.78531 15.7547 1.0702C16.4801 0.357551 17.3397 0 18.3333 0C19.327 0 20.1865 0.357551 20.9119 1.07265C21.6373 1.78776 22 2.6351 22 3.61469C22 4.59429 21.6373 5.44163 20.9119 6.15673C20.1865 6.87184 19.327 7.22939 18.3333 7.22939C17.4167 7.22939 16.577 6.89143 15.8119 6.21306L7.21906 11.182C7.29607 11.5592 7.33333 11.8408 7.33333 12.0294C7.33333 12.218 7.29607 12.4996 7.21906 12.8767L15.9262 17.8457C16.6143 17.2433 17.4167 16.942 18.3333 16.942Z" fill="#7A7A7A"/>
</svg>
