<svg width="70" height="70" viewBox="0 0 70 70" fill="none" xmlns="http://www.w3.org/2000/svg">
<path d="M70 35C70 15.6771 54.3229 0 35 0C15.6771 0 0 15.6771 0 35C0 54.3229 15.6771 70 35 70C54.3229 70 70 54.3229 70 35Z" fill="#FF647C"/>
<path d="M27.7663 49.2991L48.6296 36.6954C48.9204 36.5183 49.1607 36.2693 49.3275 35.9724C49.4943 35.6755 49.5819 35.3407 49.5819 35.0001C49.5819 34.6596 49.4943 34.3248 49.3275 34.0279C49.1607 33.731 48.9204 33.482 48.6296 33.3048L27.7663 20.7012C27.4672 20.522 27.1259 20.4256 26.7773 20.4219C26.4287 20.4182 26.0854 20.5073 25.7826 20.68C25.4798 20.8527 25.2284 21.1029 25.0542 21.4049C24.88 21.7068 24.7893 22.0497 24.7913 22.3983V47.6019C24.7893 47.9505 24.88 48.2934 25.0542 48.5954C25.2284 48.8973 25.4798 49.1475 25.7826 49.3202C26.0854 49.493 26.4287 49.5821 26.7773 49.5783C27.1259 49.5746 27.4672 49.4782 27.7663 49.2991Z" fill="white"/>
</svg>
