<svg width="24" height="20" viewBox="0 0 24 20" fill="none" xmlns="http://www.w3.org/2000/svg">
<path fill-rule="evenodd" clip-rule="evenodd" d="M22 20H2C0.896 20 0 19.104 0 18V6.00002C0 4.89602 0.896 4.00002 2 4.00002H3.626L3.704 4.28302C3.898 4.91402 4.222 5.50402 4.654 6.00002H2.5C2.224 6.00002 2 6.22402 2 6.50002V12H22V6.50002C22 6.22402 21.776 6.00002 21.5 6.00002H19.346C19.843 5.43102 20.199 4.73602 20.375 4.00002H22C23.104 4.00002 24 4.89602 24 6.00002V18C24 19.104 23.104 20 22 20ZM2 15V17.5C2 17.776 2.224 18 2.5 18H21.5C21.776 18 22 17.776 22 17.5V15H2ZM10.911 10H8C8.584 8.64302 9.295 7.16803 10 6.00002C9.353 5.99902 8.428 6.00702 8 6.00002C5.899 5.96502 5.013 4.19403 5 3.00002C4.984 1.46602 6.205 -0.00697515 8 2.48499e-05C9.499 0.00602485 10.814 0.872025 12 2.31302C13.186 0.872025 14.501 0.00602485 16 2.48499e-05C17.796 -0.00697515 19.016 1.46602 19 3.00002C18.987 4.19403 18.101 5.96502 16 6.00002C15.572 6.00702 14.647 5.99902 14 6.00002C14.739 7.19802 15.491 8.77203 16 10H13.089C12.848 8.76202 12.389 7.34802 12 6.61602C11.612 7.34802 11.098 9.00902 10.911 10ZM8.358 2.00202C7.227 2.00202 6.851 3.92002 8.478 4.00002C8.715 4.01202 10.713 4.00002 10.713 4.00002C9.676 2.56002 9.193 2.00202 8.358 2.00202ZM15.629 2.00202C16.76 2.00202 17.136 3.92002 15.509 4.00002C15.272 4.01202 13.287 4.00002 13.287 4.00002C14.324 2.56002 14.794 2.00202 15.629 2.00202Z" fill="#7A7A7A"/>
</svg>
