<svg width="119" height="92" viewBox="0 0 119 92" fill="none" xmlns="http://www.w3.org/2000/svg">
<path d="M109.852 5.54053H38.5789C34.0788 5.54053 30.4307 9.21332 30.4307 13.7439V61.1505C30.4307 65.6811 34.0788 69.3539 38.5789 69.3539H109.852C114.352 69.3539 118 65.6811 118 61.1505V13.7439C118 9.21332 114.352 5.54053 109.852 5.54053Z" fill="white" stroke="#92D7C0" stroke-width="2"/>
<path d="M112.008 0H93.4819C92.4231 0 91.5647 0.864187 91.5647 1.93021V25.6352C91.5647 26.7012 92.4231 27.5654 93.4819 27.5654H112.008C113.067 27.5654 113.925 26.7012 113.925 25.6352V1.93021C113.925 0.864187 113.067 0 112.008 0Z" fill="#6CC9AA"/>
<path d="M112.008 29.4358H93.4819C92.4231 29.4358 91.5647 30.3 91.5647 31.366V40.3694C91.5647 41.4355 92.4231 42.2997 93.4819 42.2997H112.008C113.067 42.2997 113.925 41.4355 113.925 40.3694V31.366C113.925 30.3 113.067 29.4358 112.008 29.4358Z" fill="#F5F5FA"/>
<g filter="url(#filter0_d)">
<path d="M102.589 37.7793C103.724 37.7793 104.645 36.8524 104.645 35.709C104.645 34.5656 103.724 33.6387 102.589 33.6387C101.453 33.6387 100.532 34.5656 100.532 35.709C100.532 36.8524 101.453 37.7793 102.589 37.7793Z" fill="white"/>
<path d="M105.746 32.3311C103.838 32.3311 102.286 33.8462 102.286 35.7089C102.286 37.5715 103.838 39.0868 105.746 39.0868C107.654 39.0868 109.207 37.5715 109.207 35.7089C109.207 33.8462 107.654 32.3311 105.746 32.3311ZM105.344 36.8902C105.121 37.0185 104.844 36.8564 104.844 36.5977V34.8202C104.844 34.5617 105.121 34.3995 105.344 34.5276L106.892 35.4163C107.117 35.5456 107.117 35.8725 106.892 36.0013L105.344 36.8902Z" fill="#6CC9AA"/>
</g>
<path d="M112.008 43.9124H93.4819C92.4231 43.9124 91.5647 44.7765 91.5647 45.8426V54.846C91.5647 55.912 92.4231 56.7762 93.4819 56.7762H112.008C113.067 56.7762 113.925 55.912 113.925 54.846V45.8426C113.925 44.7765 113.067 43.9124 112.008 43.9124Z" fill="#F5F5FA"/>
<path d="M91.556 60.741C91.556 59.6746 92.4144 58.8108 93.4732 58.8108H111.999C113.058 58.8108 113.916 59.6746 113.916 60.741V64.9257C113.916 67.0576 112.199 68.7861 110.082 68.7861H91.556V60.741Z" fill="#F5F5FA"/>
<g filter="url(#filter1_d)">
<path d="M102.589 9.79101C103.724 9.79101 104.645 8.8641 104.645 7.7207C104.645 6.5773 103.724 5.65039 102.589 5.65039C101.453 5.65039 100.532 6.5773 100.532 7.7207C100.532 8.8641 101.453 9.79101 102.589 9.79101Z" fill="#6CC9AA"/>
<path d="M105.746 4.34302C103.838 4.34302 102.286 5.85819 102.286 7.72089C102.286 9.58355 103.838 11.0988 105.746 11.0988C107.654 11.0988 109.207 9.58355 109.207 7.72089C109.207 5.85819 107.654 4.34302 105.746 4.34302ZM105.344 8.90223C105.121 9.0303 104.844 8.86817 104.844 8.60961V6.83213C104.844 6.57362 105.121 6.41148 105.344 6.53955L106.892 7.42827C107.117 7.55755 107.117 7.88424 106.892 8.01347L105.344 8.90223Z" fill="white"/>
</g>
<path d="M110.497 13.0291H95.1592C94.7621 13.0291 94.4402 13.3531 94.4402 13.7529C94.4402 14.1526 94.7621 14.4767 95.1592 14.4767H110.497C110.894 14.4767 111.216 14.1526 111.216 13.7529C111.216 13.3531 110.894 13.0291 110.497 13.0291Z" fill="white"/>
<path opacity="0.7" d="M109.539 15.9243H96.118C95.721 15.9243 95.3991 16.2484 95.3991 16.6481C95.3991 17.0479 95.721 17.372 96.118 17.372H109.539C109.936 17.372 110.258 17.0479 110.258 16.6481C110.258 16.2484 109.936 15.9243 109.539 15.9243Z" fill="white"/>
<path opacity="0.7" d="M110.497 18.8196H95.1592C94.7621 18.8196 94.4402 19.1437 94.4402 19.5434C94.4402 19.9432 94.7621 20.2672 95.1592 20.2672H110.497C110.894 20.2672 111.216 19.9432 111.216 19.5434C111.216 19.1437 110.894 18.8196 110.497 18.8196Z" fill="white"/>
<path opacity="0.7" d="M107.142 21.7148H98.994C98.597 21.7148 98.2751 22.0389 98.2751 22.4387C98.2751 22.8384 98.597 23.1625 98.994 23.1625H107.142C107.539 23.1625 107.861 22.8384 107.861 22.4387C107.861 22.0389 107.539 21.7148 107.142 21.7148Z" fill="white"/>
<path d="M38.6216 13.787C39.6297 13.787 40.4469 12.9642 40.4469 11.9493C40.4469 10.9343 39.6297 10.1116 38.6216 10.1116C37.6135 10.1116 36.7963 10.9343 36.7963 11.9493C36.7963 12.9642 37.6135 13.787 38.6216 13.787Z" fill="#6CC9AA"/>
<path d="M44.0972 13.787C45.1053 13.787 45.9225 12.9642 45.9225 11.9493C45.9225 10.9343 45.1053 10.1116 44.0972 10.1116C43.0891 10.1116 42.2719 10.9343 42.2719 11.9493C42.2719 12.9642 43.0891 13.787 44.0972 13.787Z" fill="#ECECF4"/>
<path d="M49.5732 13.787C50.5813 13.787 51.3986 12.9642 51.3986 11.9493C51.3986 10.9343 50.5813 10.1116 49.5732 10.1116C48.5652 10.1116 47.7479 10.9343 47.7479 11.9493C47.7479 12.9642 48.5652 13.787 49.5732 13.787Z" fill="#ECECF4"/>
<path d="M37.2211 20.8634C37.2211 18.7313 38.9379 17.0029 41.0556 17.0029H83.1582C85.2758 17.0029 86.9927 18.7313 86.9927 20.8634V68.7861H37.2211V20.8634Z" fill="#F8F8FD"/>
<path d="M79.9938 41.0171H44.6606C43.8291 41.0171 43.155 41.6957 43.155 42.5329V63.1464C43.155 63.9836 43.8291 64.6622 44.6606 64.6622H79.9938C80.8254 64.6622 81.4994 63.9836 81.4994 63.1464V42.5329C81.4994 41.6957 80.8254 41.0171 79.9938 41.0171Z" fill="#E8E8F7"/>
<g filter="url(#filter2_d)">
<path d="M62.6783 56.4575C64.663 56.4575 66.272 54.8376 66.272 52.8395C66.272 50.8413 64.663 49.2214 62.6783 49.2214C60.6936 49.2214 59.0847 50.8413 59.0847 52.8395C59.0847 54.8376 60.6936 56.4575 62.6783 56.4575Z" fill="white"/>
<path d="M64.5845 46.9363C61.2495 46.9363 58.5371 49.5841 58.5371 52.8394C58.5371 56.0947 61.2495 58.7424 64.5845 58.7424C67.919 58.7424 70.6314 56.0947 70.6314 52.8394C70.6314 49.5841 67.919 46.9363 64.5845 46.9363ZM63.507 55.1185C63.2841 55.2468 63.0066 55.0847 63.0066 54.826V50.8527C63.0066 50.594 63.2841 50.4319 63.507 50.5603L66.9671 52.5469C67.1919 52.6758 67.1919 53.0025 66.9671 53.1318L63.507 55.1185Z" fill="#6CC9AA"/>
</g>
<path d="M51.7823 22.6799H43.6341C42.84 22.6799 42.1962 23.3281 42.1962 24.1276C42.1962 24.9271 42.84 25.5753 43.6341 25.5753H51.7823C52.5764 25.5753 53.2202 24.9271 53.2202 24.1276C53.2202 23.3281 52.5764 22.6799 51.7823 22.6799Z" fill="#9595BC"/>
<path d="M77.6648 28.4707H43.6341C42.84 28.4707 42.1962 29.1188 42.1962 29.9184C42.1962 30.7179 42.84 31.366 43.6341 31.366H77.6648C78.4589 31.366 79.1027 30.7179 79.1027 29.9184C79.1027 29.1188 78.4589 28.4707 77.6648 28.4707Z" fill="#EAEAF2"/>
<path d="M60.8891 32.8137H43.6341C42.84 32.8137 42.1962 33.4619 42.1962 34.2614C42.1962 35.0609 42.84 35.709 43.6341 35.709H60.8891C61.6832 35.709 62.327 35.0609 62.327 34.2614C62.327 33.4619 61.6832 32.8137 60.8891 32.8137Z" fill="#6CC9AA"/>
<path d="M73.8305 32.8137H66.1616C65.3675 32.8137 64.7237 33.4619 64.7237 34.2614C64.7237 35.0609 65.3675 35.709 66.1616 35.709H73.8305C74.6246 35.709 75.2684 35.0609 75.2684 34.2614C75.2684 33.4619 74.6246 32.8137 73.8305 32.8137Z" fill="#EAEAF2"/>
<path d="M86.7714 42.4648H37.403V68.5227H86.7714V42.4648Z" fill="url(#paint0_linear)"/>
<g filter="url(#filter3_d)">
<path d="M102.589 52.7383C103.724 52.7383 104.645 51.8114 104.645 50.668C104.645 49.5246 103.724 48.5977 102.589 48.5977C101.453 48.5977 100.532 49.5246 100.532 50.668C100.532 51.8114 101.453 52.7383 102.589 52.7383Z" fill="white"/>
<path d="M105.746 47.2903C103.838 47.2903 102.286 48.8055 102.286 50.6682C102.286 52.5308 103.838 54.046 105.746 54.046C107.654 54.046 109.207 52.5308 109.207 50.6682C109.207 48.8055 107.654 47.2903 105.746 47.2903ZM105.344 51.8494C105.121 51.9778 104.844 51.8157 104.844 51.557V49.7793C104.844 49.5211 105.121 49.359 105.344 49.4869L106.892 50.3757C107.117 50.5051 107.117 50.8317 106.892 50.9606L105.344 51.8494Z" fill="#6CC9AA"/>
</g>
<g filter="url(#filter4_d)">
<path d="M102.589 67.2148C103.724 67.2148 104.645 66.2879 104.645 65.1445C104.645 64.0011 103.724 63.0742 102.589 63.0742C101.453 63.0742 100.532 64.0011 100.532 65.1445C100.532 66.2879 101.453 67.2148 102.589 67.2148Z" fill="white"/>
<path d="M105.746 61.7668C103.838 61.7668 102.286 63.2821 102.286 65.1447C102.286 67.0074 103.838 68.5226 105.746 68.5226C107.654 68.5226 109.207 67.0074 109.207 65.1447C109.207 63.2821 107.654 61.7668 105.746 61.7668ZM105.344 66.326C105.121 66.4544 104.844 66.2922 104.844 66.0336V64.2559C104.844 63.9977 105.121 63.8356 105.344 63.9634L106.892 64.8523C107.117 64.9816 107.117 65.3083 106.892 65.4372L105.344 66.326Z" fill="#6CC9AA"/>
</g>
<g filter="url(#filter5_d)">
<path d="M31.7162 77.8214C42.6051 77.8214 51.4323 68.9344 51.4323 57.9716C51.4323 47.0089 42.6051 38.1218 31.7162 38.1218C20.8272 38.1218 12 47.0089 12 57.9716C12 68.9344 20.8272 77.8214 31.7162 77.8214Z" fill="#6CC9AA"/>
</g>
<g filter="url(#filter6_d)">
<path d="M43.6012 61.7955L32.1774 57.6095C31.6985 57.434 31.169 57.6826 30.9947 58.1647C30.8204 58.6468 31.0673 59.1799 31.5462 59.3554L42.97 63.5414C43.4489 63.7169 43.9784 63.4683 44.1527 62.9862C44.327 62.5041 44.0801 61.971 43.6012 61.7955Z" fill="white"/>
<path d="M36.745 51.9226C37.0373 51.5023 36.9358 50.9231 36.5184 50.6288C36.1009 50.3345 35.5256 50.4366 35.2332 50.8569L30.8141 57.2107C30.5218 57.631 30.6232 58.2103 31.0407 58.5045C31.4581 58.7988 32.0335 58.6967 32.3258 58.2764L36.745 51.9226Z" fill="white"/>
<path d="M31.7158 60.8126C33.2743 60.8126 34.5378 59.5406 34.5378 57.9715C34.5378 56.4024 33.2743 55.1304 31.7158 55.1304C30.1572 55.1304 28.8938 56.4024 28.8938 57.9715C28.8938 59.5406 30.1572 60.8126 31.7158 60.8126Z" fill="white"/>
</g>
<defs>
<filter id="filter0_d" x="97.042" y="29.8879" width="15.6549" height="13.7361" filterUnits="userSpaceOnUse" color-interpolation-filters="sRGB">
<feFlood flood-opacity="0" result="BackgroundImageFix"/>
<feColorMatrix in="SourceAlpha" type="matrix" values="0 0 0 0 0 0 0 0 0 0 0 0 0 0 0 0 0 0 127 0"/>
<feOffset dy="1.04706"/>
<feGaussianBlur stdDeviation="1.7451"/>
<feColorMatrix type="matrix" values="0 0 0 0 0.203922 0 0 0 0 0.203922 0 0 0 0 1 0 0 0 0.25 0"/>
<feBlend mode="normal" in2="BackgroundImageFix" result="effect1_dropShadow"/>
<feBlend mode="normal" in="SourceGraphic" in2="effect1_dropShadow" result="shape"/>
</filter>
<filter id="filter1_d" x="97.042" y="1.89988" width="15.6549" height="13.7362" filterUnits="userSpaceOnUse" color-interpolation-filters="sRGB">
<feFlood flood-opacity="0" result="BackgroundImageFix"/>
<feColorMatrix in="SourceAlpha" type="matrix" values="0 0 0 0 0 0 0 0 0 0 0 0 0 0 0 0 0 0 127 0"/>
<feOffset dy="1.04706"/>
<feGaussianBlur stdDeviation="1.7451"/>
<feColorMatrix type="matrix" values="0 0 0 0 0.114722 0 0 0 0 0.114722 0 0 0 0 0.466667 0 0 0 0.25 0"/>
<feBlend mode="normal" in2="BackgroundImageFix" result="effect1_dropShadow"/>
<feBlend mode="normal" in="SourceGraphic" in2="effect1_dropShadow" result="shape"/>
</filter>
<filter id="filter2_d" x="55.0469" y="44.4931" width="19.0747" height="18.7866" filterUnits="userSpaceOnUse" color-interpolation-filters="sRGB">
<feFlood flood-opacity="0" result="BackgroundImageFix"/>
<feColorMatrix in="SourceAlpha" type="matrix" values="0 0 0 0 0 0 0 0 0 0 0 0 0 0 0 0 0 0 127 0"/>
<feOffset dy="1.04706"/>
<feGaussianBlur stdDeviation="1.7451"/>
<feColorMatrix type="matrix" values="0 0 0 0 0.203922 0 0 0 0 0.203922 0 0 0 0 1 0 0 0 0.25 0"/>
<feBlend mode="normal" in2="BackgroundImageFix" result="effect1_dropShadow"/>
<feBlend mode="normal" in="SourceGraphic" in2="effect1_dropShadow" result="shape"/>
</filter>
<filter id="filter3_d" x="97.042" y="44.8471" width="15.6549" height="13.7362" filterUnits="userSpaceOnUse" color-interpolation-filters="sRGB">
<feFlood flood-opacity="0" result="BackgroundImageFix"/>
<feColorMatrix in="SourceAlpha" type="matrix" values="0 0 0 0 0 0 0 0 0 0 0 0 0 0 0 0 0 0 127 0"/>
<feOffset dy="1.04706"/>
<feGaussianBlur stdDeviation="1.7451"/>
<feColorMatrix type="matrix" values="0 0 0 0 0.203922 0 0 0 0 0.203922 0 0 0 0 1 0 0 0 0.25 0"/>
<feBlend mode="normal" in2="BackgroundImageFix" result="effect1_dropShadow"/>
<feBlend mode="normal" in="SourceGraphic" in2="effect1_dropShadow" result="shape"/>
</filter>
<filter id="filter4_d" x="97.042" y="59.3237" width="15.6549" height="13.7362" filterUnits="userSpaceOnUse" color-interpolation-filters="sRGB">
<feFlood flood-opacity="0" result="BackgroundImageFix"/>
<feColorMatrix in="SourceAlpha" type="matrix" values="0 0 0 0 0 0 0 0 0 0 0 0 0 0 0 0 0 0 127 0"/>
<feOffset dy="1.04706"/>
<feGaussianBlur stdDeviation="1.7451"/>
<feColorMatrix type="matrix" values="0 0 0 0 0.203922 0 0 0 0 0.203922 0 0 0 0 1 0 0 0 0.25 0"/>
<feBlend mode="normal" in2="BackgroundImageFix" result="effect1_dropShadow"/>
<feBlend mode="normal" in="SourceGraphic" in2="effect1_dropShadow" result="shape"/>
</filter>
<filter id="filter5_d" x="0" y="28.1218" width="63.4323" height="63.6996" filterUnits="userSpaceOnUse" color-interpolation-filters="sRGB">
<feFlood flood-opacity="0" result="BackgroundImageFix"/>
<feColorMatrix in="SourceAlpha" type="matrix" values="0 0 0 0 0 0 0 0 0 0 0 0 0 0 0 0 0 0 127 0"/>
<feOffset dy="2"/>
<feGaussianBlur stdDeviation="6"/>
<feColorMatrix type="matrix" values="0 0 0 0 0.203922 0 0 0 0 0.203922 0 0 0 0 1 0 0 0 0.31 0"/>
<feBlend mode="normal" in2="BackgroundImageFix" result="effect1_dropShadow"/>
<feBlend mode="normal" in="SourceGraphic" in2="effect1_dropShadow" result="shape"/>
</filter>
<filter id="filter6_d" x="23.8938" y="47.4607" width="25.3148" height="23.137" filterUnits="userSpaceOnUse" color-interpolation-filters="sRGB">
<feFlood flood-opacity="0" result="BackgroundImageFix"/>
<feColorMatrix in="SourceAlpha" type="matrix" values="0 0 0 0 0 0 0 0 0 0 0 0 0 0 0 0 0 0 127 0"/>
<feOffset dy="2"/>
<feGaussianBlur stdDeviation="2.5"/>
<feColorMatrix type="matrix" values="0 0 0 0 0.12 0 0 0 0 0.12 0 0 0 0 0.8 0 0 0 0.18 0"/>
<feBlend mode="normal" in2="BackgroundImageFix" result="effect1_dropShadow"/>
<feBlend mode="normal" in="SourceGraphic" in2="effect1_dropShadow" result="shape"/>
</filter>
<linearGradient id="paint0_linear" x1="62.0872" y1="42.4648" x2="62.0872" y2="68.5227" gradientUnits="userSpaceOnUse">
<stop stop-color="white" stop-opacity="0"/>
<stop offset="1" stop-color="white"/>
</linearGradient>
</defs>
</svg>
