<svg width="92" height="90" viewBox="0 0 92 90" fill="none" xmlns="http://www.w3.org/2000/svg">
<path d="M50.0002 75.6302C70.5702 75.6302 87.2455 58.955 87.2455 38.3849C87.2455 17.8149 70.5702 1.13965 50.0002 1.13965C29.4302 1.13965 12.7549 17.8149 12.7549 38.3849C12.7549 58.955 29.4302 75.6302 50.0002 75.6302Z" fill="#F6F6FF"/>
<path d="M49.792 66.1203V55.8184" stroke="#92D7C0" stroke-width="2"/>
<path d="M24.1416 52.972L33.0633 47.821" stroke="#92D7C0" stroke-width="2"/>
<path d="M49.8113 57.3882C60.2005 57.3882 68.6226 48.9661 68.6226 38.5769C68.6226 28.1877 60.2005 19.7656 49.8113 19.7656C39.4221 19.7656 31 28.1877 31 38.5769C31 48.9661 39.4221 57.3882 49.8113 57.3882Z" fill="white" stroke="#92D7C0" stroke-width="2"/>
<path d="M42.8496 41.2655H45.4496C45.809 41.2655 46.0995 40.9743 46.0995 40.6156C46.0995 40.2568 45.809 39.9656 45.4496 39.9656H42.8496C42.4902 39.9656 42.1996 40.2568 42.1996 40.6156C42.1996 40.9743 42.4902 41.2655 42.8496 41.2655Z" fill="#6CC9AA"/>
<path d="M40.2499 37.3656C40.6094 37.3656 40.8999 37.0744 40.8999 36.7156C40.8999 36.3569 40.6094 36.0657 40.2499 36.0657H37.65C37.2905 36.0657 37 36.3569 37 36.7156V41.9156C37 42.2744 37.2905 42.5656 37.65 42.5656H40.2499C40.6094 42.5656 40.8999 42.2744 40.8999 41.9156C40.8999 41.5568 40.6094 41.2656 40.2499 41.2656H38.2999V39.9656H40.2499C40.6094 39.9656 40.8999 39.6744 40.8999 39.3157C40.8999 38.9569 40.6094 38.6657 40.2499 38.6657H38.2999V37.3656H40.2499Z" fill="#6CC9AA"/>
<path d="M62.9995 36.7156C62.9995 35.6405 62.1246 34.7656 61.0495 34.7656C59.9745 34.7656 59.0996 35.6405 59.0996 36.7156C59.0996 37.0744 59.3901 37.3656 59.7495 37.3656C60.109 37.3656 60.3995 37.0744 60.3995 36.7156C60.3995 36.3575 60.6907 36.0656 61.0495 36.0656C61.4082 36.0656 61.6994 36.3575 61.6994 36.7137C61.6838 36.9152 61.1768 37.4573 60.6595 37.8206L59.3594 38.7956C59.1359 38.964 59.0442 39.2559 59.1332 39.521C59.221 39.7868 59.4693 39.9656 59.7494 39.9656H62.3494C62.7089 39.9656 62.9994 39.6744 62.9994 39.3156C62.9994 38.9569 62.7089 38.6657 62.3494 38.6657H61.7007C62.1981 38.2723 62.9995 37.5144 62.9995 36.7156Z" fill="#6CC9AA"/>
<path d="M55.8497 37.3657C56.2084 37.3657 56.4996 37.6575 56.4996 38.0157C56.4996 38.3744 56.7901 38.6656 57.1496 38.6656C57.5091 38.6656 57.7996 38.3744 57.7996 38.0157C57.7996 36.9406 56.9247 36.0657 55.8496 36.0657C54.7745 36.0657 53.8996 36.9406 53.8996 38.0157V40.6156C53.8996 41.6907 54.7745 42.5656 55.8496 42.5656C56.9247 42.5656 57.7996 41.6907 57.7996 40.6156C57.7996 40.2569 57.5091 39.9656 57.1496 39.9656C56.7901 39.9656 56.4996 40.2569 56.4996 40.6156C56.4996 40.9738 56.2084 41.2656 55.8497 41.2656C55.4909 41.2656 55.1997 40.9738 55.1997 40.6156V38.0157C55.1997 37.6575 55.4909 37.3657 55.8497 37.3657Z" fill="#6CC9AA"/>
<path d="M51.9498 42.5656C52.3093 42.5656 52.5998 42.2744 52.5998 41.9157V36.7157C52.5998 36.4355 52.421 36.1879 52.1552 36.0988C51.8894 36.0111 51.5982 36.1027 51.4298 36.3257L49.9999 38.2327L48.5699 36.3256C48.4022 36.102 48.111 36.0103 47.8445 36.0987C47.5787 36.1878 47.3999 36.4354 47.3999 36.7156V41.9156C47.3999 42.2744 47.6904 42.5656 48.0499 42.5656C48.4093 42.5656 48.6998 42.2744 48.6998 41.9156V38.6656L49.4798 39.7055C49.7249 40.0332 50.2748 40.0332 50.5198 39.7055L51.2998 38.6656V41.9156C51.2999 42.2744 51.5904 42.5656 51.9498 42.5656Z" fill="#6CC9AA"/>
<path d="M42.8496 38.6657H45.4496C45.809 38.6657 46.0995 38.3745 46.0995 38.0157C46.0995 37.6569 45.809 37.3657 45.4496 37.3657H42.8496C42.4902 37.3657 42.1996 37.6569 42.1996 38.0157C42.1996 38.3745 42.4902 38.6657 42.8496 38.6657Z" fill="#6CC9AA"/>
<g filter="url(#filter0_d)">
<path d="M18.3019 67.7054C23.9915 67.7054 28.6038 63.093 28.6038 57.4035C28.6038 51.7139 23.9915 47.1016 18.3019 47.1016C12.6123 47.1016 8 51.7139 8 57.4035C8 63.093 12.6123 67.7054 18.3019 67.7054Z" fill="#6CC9AA"/>
</g>
<path d="M50.7925 88.1018C57.2428 88.1018 62.4718 82.8728 62.4718 76.4225C62.4718 69.9722 57.2428 64.7432 50.7925 64.7432C44.3422 64.7432 39.1132 69.9722 39.1132 76.4225C39.1132 82.8728 44.3422 88.1018 50.7925 88.1018Z" fill="white" stroke="#92D7C0" stroke-width="2"/>
<path d="M35.7912 25.5887L27.0742 16.0793" stroke="#92D7C0" stroke-width="2"/>
<path d="M80.8185 47.6152L68.0949 45.4883" stroke="#92D7C0" stroke-width="2"/>
<path d="M62.2335 24.4796L71.7429 15.7627" stroke="#92D7C0" stroke-width="2"/>
<g filter="url(#filter1_d)">
<path d="M65.8492 13.0256C65.8492 17.8398 69.7519 21.7426 74.5662 21.7426C79.3804 21.7426 83.2831 17.8398 83.2831 13.0256C83.2831 8.21132 79.3804 4.30859 74.5662 4.30859C69.7519 4.30859 65.8492 8.21132 65.8492 13.0256Z" fill="#6CC9AA"/>
</g>
<path d="M83.2824 56.4037C87.5444 56.4037 90.9994 52.9487 90.9994 48.6867C90.9994 44.4247 87.5444 40.9697 83.2824 40.9697C79.0204 40.9697 75.5654 44.4247 75.5654 48.6867C75.5654 52.9487 79.0204 56.4037 83.2824 56.4037Z" fill="white" stroke="#92D7C0" stroke-width="2"/>
<path d="M22.0909 19.1583C27.1052 19.1583 31.1701 15.0934 31.1701 10.0791C31.1701 5.06487 27.1052 1 22.0909 1C17.0766 1 13.0118 5.06487 13.0118 10.0791C13.0118 15.0934 17.0766 19.1583 22.0909 19.1583Z" fill="white" stroke="#92D7C0" stroke-width="2"/>
<defs>
<filter id="filter0_d" x="0" y="43.1016" width="36.6038" height="36.6038" filterUnits="userSpaceOnUse" color-interpolation-filters="sRGB">
<feFlood flood-opacity="0" result="BackgroundImageFix"/>
<feColorMatrix in="SourceAlpha" type="matrix" values="0 0 0 0 0 0 0 0 0 0 0 0 0 0 0 0 0 0 127 0"/>
<feOffset dy="4"/>
<feGaussianBlur stdDeviation="4"/>
<feColorMatrix type="matrix" values="0 0 0 0 0.203922 0 0 0 0 0.203922 0 0 0 0 1 0 0 0 0.31 0"/>
<feBlend mode="normal" in2="BackgroundImageFix" result="effect1_dropShadow"/>
<feBlend mode="normal" in="SourceGraphic" in2="effect1_dropShadow" result="shape"/>
</filter>
<filter id="filter1_d" x="57.8492" y="0.308594" width="33.434" height="33.434" filterUnits="userSpaceOnUse" color-interpolation-filters="sRGB">
<feFlood flood-opacity="0" result="BackgroundImageFix"/>
<feColorMatrix in="SourceAlpha" type="matrix" values="0 0 0 0 0 0 0 0 0 0 0 0 0 0 0 0 0 0 127 0"/>
<feOffset dy="4"/>
<feGaussianBlur stdDeviation="4"/>
<feColorMatrix type="matrix" values="0 0 0 0 0.203922 0 0 0 0 0.203922 0 0 0 0 1 0 0 0 0.31 0"/>
<feBlend mode="normal" in2="BackgroundImageFix" result="effect1_dropShadow"/>
<feBlend mode="normal" in="SourceGraphic" in2="effect1_dropShadow" result="shape"/>
</filter>
</defs>
</svg>
