<svg width="90" height="85" viewBox="0 0 90 85" fill="none" xmlns="http://www.w3.org/2000/svg">
<path d="M41.9996 75.923C62.9651 75.923 79.9611 58.9271 79.9611 37.9615C79.9611 16.9959 62.9651 0 41.9996 0C21.034 0 4.03809 16.9959 4.03809 37.9615C4.03809 58.9271 21.034 75.923 41.9996 75.923Z" fill="#F6F6FF"/>
<path d="M30.8726 40.9489L29.786 40.7781C29.3266 43.6997 29.5693 46.6888 30.494 49.4981L30.4975 49.5086C30.5298 49.6034 30.5399 49.7044 30.5269 49.8038C30.5139 49.9031 30.4782 49.9981 30.4227 50.0815C30.3671 50.1648 30.2931 50.2343 30.2064 50.2845C30.1245 50.3319 30.0334 50.3609 29.9393 50.3696C26.3051 50.4652 22.6787 49.9833 19.1955 48.9418L18.7585 48.8112L18.3573 49.0281L15.77 50.4266L15.7625 50.4307L10.0241 53.4748C10.0236 53.475 10.023 53.4753 10.0225 53.4756C9.9087 53.5349 9.7799 53.5593 9.6522 53.5458C9.5239 53.5323 9.4025 53.481 9.3033 53.3986C9.2041 53.3162 9.1315 53.2062 9.0947 53.0826C9.0583 52.9601 9.0585 52.8297 9.0954 52.7074C9.793 50.5102 10.5255 48.3129 11.2928 46.1155L11.5685 45.3261L10.8817 44.8493C6.3385 41.695 3.07384 37.0193 1.6779 31.6677C1.03509 29.0392 0.927347 26.3083 1.3611 23.6373C1.79512 20.9647 2.76242 18.4067 4.20541 16.1156C7.4143 11.086 12.2308 7.29008 17.8713 5.34578L17.8804 5.34258C22.1133 3.84168 26.6172 3.25888 31.0927 3.63288C35.5683 4.00678 39.913 5.32888 43.8382 7.51138L43.8452 7.51528L43.8522 7.51908C46.8576 9.13318 49.4833 11.3712 51.5532 14.0829C53.6209 16.7916 55.0863 19.9106 55.8515 23.2312C55.8709 23.3274 55.8683 23.4268 55.844 23.522C55.8191 23.6194 55.772 23.7098 55.7064 23.7861L55.7016 23.7916L55.697 23.7972C55.6367 23.8691 55.5599 23.9255 55.4732 23.9614C55.3874 23.997 55.2944 24.0116 55.2019 24.0039C51.6997 23.6697 48.1661 24.0596 44.8209 25.1494C41.4745 26.2397 38.3883 28.0071 35.7545 30.3416C32.6768 33.056 30.5812 36.7104 29.7931 40.7377L30.8726 40.9489ZM36.2914 14.5949L36.2878 14.5962C35.5134 14.8732 34.8273 15.3526 34.3008 15.9844C33.778 16.6117 33.4315 17.3666 33.2965 18.1717C33.1442 18.9603 33.2109 19.7756 33.4894 20.5291C33.7657 21.2768 34.24 21.935 34.8613 22.4337C35.6652 23.148 36.7051 23.5403 37.7812 23.5345C38.4456 23.5371 39.1027 23.396 39.7074 23.1208C40.4356 22.7915 41.0657 22.2784 41.5356 21.6319C42.0058 20.9851 42.2995 20.2269 42.3878 19.4321C42.4761 18.6373 42.356 17.8332 42.0393 17.0989C41.7225 16.3646 41.2201 15.7254 40.5814 15.2442L40.5755 15.2398C39.969 14.7892 39.2611 14.4948 38.514 14.3823C37.7669 14.2698 37.0036 14.3428 36.2914 14.5949ZM23.795 20.1426C23.9714 19.5369 24.0216 18.9013 23.9423 18.2753C23.8627 17.6472 23.6545 17.0422 23.3306 16.4982C23.0068 15.9542 22.5743 15.4827 22.0601 15.1133C21.546 14.7439 20.9611 14.4844 20.3422 14.3511C19.7233 14.2178 19.0835 14.2135 18.4629 14.3385C17.8422 14.4635 17.254 14.7151 16.7349 15.0776C16.2158 15.4401 15.777 15.9057 15.4459 16.4453C15.1168 16.9818 14.9011 17.5799 14.8121 18.2029C14.6867 18.992 14.7687 19.8002 15.0502 20.5482C15.3315 21.2956 15.8022 21.9569 16.4161 22.4674C17.219 23.1599 18.2452 23.539 19.3058 23.5345L19.3136 23.5344C19.8268 23.5286 20.3353 23.4371 20.8182 23.2637C21.5297 23.0264 22.1726 22.619 22.6909 22.0767C23.2116 21.532 23.5907 20.8679 23.795 20.1426Z" fill="white" stroke="#92D7C0" stroke-width="2.2"/>
<g filter="url(#filter0_d)">
<path d="M60.7954 50.0398C68.5438 50.0398 74.8251 47.375 74.8251 44.0877C74.8251 40.8005 68.5438 38.1357 60.7954 38.1357C53.047 38.1357 46.7657 40.8005 46.7657 44.0877C46.7657 47.375 53.047 50.0398 60.7954 50.0398Z" fill="#6CC9AA"/>
<path d="M82.5581 43.264C80.431 38.6781 76.7909 34.9637 72.2489 32.7444C68.3701 30.7953 64.0892 29.7803 59.7482 29.7803C55.4072 29.7803 51.1263 30.7953 47.2475 32.7444C44.4448 34.1011 41.9782 36.063 40.0257 38.4885C38.0731 40.9141 36.6833 43.7427 35.9565 46.7705C34.932 51.3843 35.7498 56.2159 38.2357 60.2355C40.0689 63.0752 42.476 65.5 45.3022 67.3539C48.1285 69.2079 51.3113 70.45 54.6462 71.0005C59.1534 71.8172 63.7894 71.565 68.1814 70.2642C69.3831 70.8324 70.5536 71.4645 71.6879 72.1577C72.7048 72.7187 73.7217 73.3148 74.7736 73.8057C75.0277 73.8619 75.291 73.8619 75.5451 73.8057C75.8172 73.8057 76.0857 73.7424 76.3292 73.6206C76.5726 73.4989 76.7844 73.3222 76.9477 73.1044C77.111 72.8867 77.2214 72.6339 77.27 72.3661C77.3187 72.0983 77.3044 71.8229 77.2282 71.5616C76.6905 69.7849 76.1295 68.02 75.5451 66.2667C78.1975 64.3027 80.368 61.7605 81.8919 58.8329C83.1535 56.4506 83.8679 53.817 83.9832 51.1237C84.0984 48.4304 83.6116 45.7453 82.5581 43.264ZM56.3995 45.403C56.2443 45.9569 55.9552 46.4641 55.5577 46.8799C55.1603 47.2957 54.6666 47.6074 54.1202 47.7874C53.7491 47.9222 53.3579 47.9933 52.9631 47.9978C52.1647 48.0011 51.3921 47.7146 50.7891 47.1913C50.318 46.8018 49.957 46.296 49.7417 45.724C49.5264 45.152 49.4644 44.5336 49.5618 43.9302C49.6288 43.453 49.7934 42.9946 50.0455 42.5838C50.2975 42.1731 50.6315 41.8186 51.0266 41.5427C51.4218 41.2668 51.8695 41.0753 52.342 40.9801C52.8144 40.885 53.3014 40.8882 53.7726 40.9897C54.2437 41.0912 54.6889 41.2887 55.0803 41.5699C55.4717 41.8511 55.8009 42.21 56.0474 42.6241C56.2939 43.0382 56.4524 43.4987 56.513 43.9768C56.5735 44.455 56.5349 44.9404 56.3995 45.403ZM71.1619 45.403C71.0067 45.9569 70.7177 46.4641 70.3202 46.8799C69.9227 47.2957 69.429 47.6074 68.8827 47.7874C68.5116 47.9222 68.1203 47.9933 67.7255 47.9978C66.9271 48.0011 66.1546 47.7146 65.5515 47.1913C65.0805 46.8018 64.7194 46.296 64.5041 45.724C64.2889 45.152 64.2268 44.5336 64.3242 43.9302C64.3912 43.453 64.5559 42.9946 64.8079 42.5838C65.0599 42.1731 65.3939 41.8186 65.7891 41.5427C66.1842 41.2668 66.632 41.0753 67.1044 40.9801C67.5769 40.885 68.0639 40.8882 68.535 40.9897C69.0061 41.0912 69.4513 41.2887 69.8427 41.5699C70.2341 41.8511 70.5633 42.21 70.8098 42.6241C71.0563 43.0382 71.2148 43.4987 71.2754 43.9768C71.336 44.455 71.2973 44.9404 71.1619 45.403Z" fill="#6CC9AA"/>
</g>
<path d="M12.5996 12.5996H44.0996L45.4596 22.4458L34.8286 26.6112L12.5996 25.1996V12.5996Z" fill="white"/>
<path d="M68.2497 42H48.0573C46.9421 42 46.0381 42.904 46.0381 44.0192C46.0381 45.1344 46.9421 46.0385 48.0573 46.0385H68.2497C69.3648 46.0385 70.2689 45.1344 70.2689 44.0192C70.2689 42.904 69.3648 42 68.2497 42Z" fill="white"/>
<path d="M31.904 16.1543H11.7116C10.5964 16.1543 9.69238 17.0583 9.69238 18.1735C9.69238 19.2887 10.5964 20.1928 11.7116 20.1928H31.904C33.0191 20.1928 33.9232 19.2887 33.9232 18.1735C33.9232 17.0583 33.0191 16.1543 31.904 16.1543Z" fill="#DFDFEB"/>
<path d="M60.9804 50.0771H48.0573C46.9421 50.0771 46.0381 50.9812 46.0381 52.0964C46.0381 53.2116 46.9421 54.1156 48.0573 54.1156H60.9804C62.0955 54.1156 62.9996 53.2116 62.9996 52.0964C62.9996 50.9812 62.0955 50.0771 60.9804 50.0771Z" fill="white"/>
<path d="M24.6347 24.2314H11.7116C10.5964 24.2314 9.69238 25.1355 9.69238 26.2507C9.69238 27.3659 10.5964 28.2699 11.7116 28.2699H24.6347C25.7498 28.2699 26.6539 27.3659 26.6539 26.2507C26.6539 25.1355 25.7498 24.2314 24.6347 24.2314Z" fill="#DFDFEB"/>
<defs>
<filter id="filter0_d" x="29.5254" y="28.7803" width="60.4744" height="56.0676" filterUnits="userSpaceOnUse" color-interpolation-filters="sRGB">
<feFlood flood-opacity="0" result="BackgroundImageFix"/>
<feColorMatrix in="SourceAlpha" type="matrix" values="0 0 0 0 0 0 0 0 0 0 0 0 0 0 0 0 0 0 127 0"/>
<feOffset dy="5"/>
<feGaussianBlur stdDeviation="3"/>
<feColorMatrix type="matrix" values="0 0 0 0 0.203922 0 0 0 0 0.203922 0 0 0 0 1 0 0 0 0.28 0"/>
<feBlend mode="normal" in2="BackgroundImageFix" result="effect1_dropShadow"/>
<feBlend mode="normal" in="SourceGraphic" in2="effect1_dropShadow" result="shape"/>
</filter>
</defs>
</svg>
