<svg width="104" height="66" viewBox="0 0 104 66" fill="none" xmlns="http://www.w3.org/2000/svg">
<path d="M94.5415 1H18.9122C14.2407 1 10.4537 4.79755 10.4537 9.48207V53.3893C10.4537 58.0738 14.2407 61.8713 18.9122 61.8713H94.5415C99.213 61.8713 103 58.0738 103 53.3893V9.48207C103 4.79755 99.213 1 94.5415 1Z" fill="white" stroke="#92D7C0" stroke-width="2"/>
<path d="M57.1806 9.84277H19.4534C17.2309 9.84277 15.4292 11.3144 15.4292 13.1298V42.302C15.4292 44.1173 17.2309 45.589 19.4534 45.589H57.1806C59.4031 45.589 61.2048 44.1173 61.2048 42.302V13.1298C61.2048 11.3144 59.4031 9.84277 57.1806 9.84277Z" fill="#F0F0FF"/>
<g filter="url(#filter0_d)">
<path d="M38.3172 34.0131C42.191 34.0131 45.3313 30.8641 45.3313 26.9796C45.3313 23.0951 42.191 19.946 38.3172 19.946C34.4435 19.946 31.3032 23.0951 31.3032 26.9796C31.3032 30.8641 34.4435 34.0131 38.3172 34.0131Z" fill="white"/>
<path d="M38.317 15.5039C32.0064 15.5039 26.873 20.6515 26.873 26.9796C26.873 33.3078 32.0064 38.4554 38.317 38.4554C44.6275 38.4554 49.7609 33.3078 49.7609 26.9796C49.7609 20.6515 44.6275 15.5039 38.317 15.5039ZM36.8312 31.0845C36.1679 31.4756 35.3316 30.9962 35.3316 30.2243V23.7349C35.3316 22.9631 36.1679 22.4835 36.8312 22.8748L42.332 26.1195C42.9861 26.5052 42.9861 27.4541 42.332 27.8398L36.8312 31.0845Z" fill="#6CC9AA"/>
</g>
<path d="M18.4146 8.98302C19.5137 8.98302 20.4048 8.08948 20.4048 6.98724C20.4048 5.885 19.5137 4.99146 18.4146 4.99146C17.3154 4.99146 16.4243 5.885 16.4243 6.98724C16.4243 8.08948 17.3154 8.98302 18.4146 8.98302Z" fill="#6CC9AA"/>
<path d="M24.3853 8.98302C25.4844 8.98302 26.3755 8.08948 26.3755 6.98724C26.3755 5.885 25.4844 4.99146 24.3853 4.99146C23.2861 4.99146 22.395 5.885 22.395 6.98724C22.395 8.08948 23.2861 8.98302 24.3853 8.98302Z" fill="#ECECF4"/>
<path d="M96.0343 11.9768H66.6782C65.5791 11.9768 64.688 12.8703 64.688 13.9726V25.9473C64.688 27.0495 65.5791 27.9431 66.6782 27.9431H96.0343C97.1335 27.9431 98.0246 27.0495 98.0246 25.9473V13.9726C98.0246 12.8703 97.1335 11.9768 96.0343 11.9768Z" fill="#F6F6FA"/>
<path d="M96.0343 30.9365H66.6782C65.5791 30.9365 64.688 31.8301 64.688 32.9323V44.907C64.688 46.0092 65.5791 46.9028 66.6782 46.9028H96.0343C97.1335 46.9028 98.0246 46.0092 98.0246 44.907V32.9323C98.0246 31.8301 97.1335 30.9365 96.0343 30.9365Z" fill="#E1FFF5"/>
<path d="M30.356 8.98302C31.4551 8.98302 32.3462 8.08948 32.3462 6.98724C32.3462 5.885 31.4551 4.99146 30.356 4.99146C29.2568 4.99146 28.3657 5.885 28.3657 6.98724C28.3657 8.08948 29.2568 8.98302 30.356 8.98302Z" fill="#ECECF4"/>
<path d="M96.5319 5.87085H67.1758C66.0766 5.87085 65.1855 6.91681 65.1855 8.20707V23.9766C65.1855 25.2668 66.0766 26.3128 67.1758 26.3128H96.5319C97.6311 26.3128 98.5221 25.2668 98.5221 23.9766V8.20707C98.5221 6.91681 97.6311 5.87085 96.5319 5.87085Z" fill="#6CC9AA"/>
<path d="M86.8294 11.1272H69.4148C69.0026 11.1272 68.6685 11.5194 68.6685 12.0033C68.6685 12.4871 69.0026 12.8793 69.4148 12.8793H86.8294C87.2416 12.8793 87.5757 12.4871 87.5757 12.0033C87.5757 11.5194 87.2416 11.1272 86.8294 11.1272Z" fill="white"/>
<path d="M94.7904 15.2156H69.4148C69.0026 15.2156 68.6685 15.6078 68.6685 16.0917C68.6685 16.5755 69.0026 16.9677 69.4148 16.9677H94.7904C95.2026 16.9677 95.5367 16.5755 95.5367 16.0917C95.5367 15.6078 95.2026 15.2156 94.7904 15.2156Z" fill="white"/>
<path d="M78.8685 19.3044H69.4148C69.0026 19.3044 68.6685 19.6967 68.6685 20.1805C68.6685 20.6644 69.0026 21.0566 69.4148 21.0566H78.8685C79.2807 21.0566 79.6148 20.6644 79.6148 20.1805C79.6148 19.6967 79.2807 19.3044 78.8685 19.3044Z" fill="white"/>
<path d="M26.4708 50.8945H6.5434C5.68022 50.8945 4.98047 51.5962 4.98047 52.4618V63.4327C4.98047 64.2983 5.68022 65 6.5434 65H26.4708C27.334 65 28.0337 64.2983 28.0337 63.4327V52.4618C28.0337 51.5962 27.334 50.8945 26.4708 50.8945Z" fill="#F6F6FA"/>
<path d="M27.6239 39.6313H5.36457C2.95408 39.6313 1 41.5909 1 44.0081V60.2019C1 62.6191 2.95408 64.5786 5.36457 64.5786H27.6239C30.0344 64.5786 31.9884 62.6191 31.9884 60.2019V44.0081C31.9884 41.5909 30.0344 39.6313 27.6239 39.6313Z" fill="white"/>
<path d="M27.6239 40.1301H5.36457C3.22888 40.1301 1.49756 41.8663 1.49756 44.0079V60.2017C1.49756 62.3434 3.22888 64.0795 5.36457 64.0795H27.6239C29.7596 64.0795 31.4909 62.3434 31.4909 60.2017V44.0079C31.4909 41.8663 29.7596 40.1301 27.6239 40.1301Z" stroke="#92D7C0" stroke-width="2"/>
<path d="M16.7027 53.3358C17.8931 53.3358 18.858 52.3682 18.858 51.1745C18.858 49.9808 17.8931 49.0132 16.7027 49.0132C15.5123 49.0132 14.5474 49.9808 14.5474 51.1745C14.5474 52.3682 15.5123 53.3358 16.7027 53.3358Z" fill="white"/>
<path d="M16.7026 47.6477C14.7635 47.6477 13.186 49.2299 13.186 51.1742C13.186 53.1186 14.7635 54.7008 16.7026 54.7008C18.6418 54.7008 20.2192 53.1186 20.2192 51.1742C20.2192 49.2299 18.6418 47.6477 16.7026 47.6477ZM16.3087 52.3987C16.0772 52.5354 15.7852 52.3677 15.7852 52.0983V50.2502C15.7852 49.9808 16.0772 49.8131 16.3087 49.9498L17.8755 50.8739C18.1039 51.0086 18.1039 51.3399 17.8755 51.4746L16.3087 52.3987Z" fill="#6CC9AA"/>
<path d="M27.4476 59.4031H5.56657C5.24287 59.4031 4.98047 59.6662 4.98047 59.9908C4.98047 60.3154 5.24287 60.5785 5.56657 60.5785H27.4476C27.7713 60.5785 28.0337 60.3154 28.0337 59.9908C28.0337 59.6662 27.7713 59.4031 27.4476 59.4031Z" fill="#ECECF4"/>
<path d="M18.4607 59.4031H5.56657C5.24287 59.4031 4.98047 59.6662 4.98047 59.9908C4.98047 60.3154 5.24287 60.5785 5.56657 60.5785H18.4607C18.7844 60.5785 19.0468 60.3154 19.0468 59.9908C19.0468 59.6662 18.7844 59.4031 18.4607 59.4031Z" fill="#6CC9AA"/>
<defs>
<filter id="filter0_d" x="18.873" y="10.5039" width="38.8878" height="38.9515" filterUnits="userSpaceOnUse" color-interpolation-filters="sRGB">
<feFlood flood-opacity="0" result="BackgroundImageFix"/>
<feColorMatrix in="SourceAlpha" type="matrix" values="0 0 0 0 0 0 0 0 0 0 0 0 0 0 0 0 0 0 127 0"/>
<feOffset dy="3"/>
<feGaussianBlur stdDeviation="4"/>
<feColorMatrix type="matrix" values="0 0 0 0 0.203922 0 0 0 0 0.203922 0 0 0 0 1 0 0 0 0.32 0"/>
<feBlend mode="normal" in2="BackgroundImageFix" result="effect1_dropShadow"/>
<feBlend mode="normal" in="SourceGraphic" in2="effect1_dropShadow" result="shape"/>
</filter>
</defs>
</svg>
