<svg width="16" height="16" viewBox="0 0 16 16" fill="none" xmlns="http://www.w3.org/2000/svg">
<path d="M16 1.33333V16H0V1.33333H2V2C2 2.73533 2.598 3.33333 3.33333 3.33333C4.06867 3.33333 4.66667 2.73533 4.66667 2V1.33333H11.3333V2C11.3333 2.73533 11.9313 3.33333 12.6667 3.33333C13.402 3.33333 14 2.73533 14 2V1.33333H16ZM14.6667 5.33333H1.33333V14.6667H14.6667V5.33333ZM13.3333 0.666667C13.3333 0.298667 13.0353 0 12.6667 0C12.298 0 12 0.298667 12 0.666667V2C12 2.368 12.298 2.66667 12.6667 2.66667C13.0353 2.66667 13.3333 2.368 13.3333 2V0.666667ZM4 2C4 2.368 3.702 2.66667 3.33333 2.66667C2.96467 2.66667 2.66667 2.368 2.66667 2V0.666667C2.66667 0.298667 2.96467 0 3.33333 0C3.702 0 4 0.298667 4 0.666667V2ZM4.66667 9.81933L5.23667 9.292C5.90333 9.61467 6.32667 9.86 7.07667 10.3947C8.48533 8.79533 9.41733 7.984 11.1473 6.90733L11.3333 7.334C9.906 8.58 8.86067 9.96667 7.35533 12.6667C6.42667 11.5733 5.80733 10.876 4.66667 9.81933Z" fill="#999999"/>
</svg>
