<svg width="16" height="16" viewBox="0 0 16 16" fill="none" xmlns="http://www.w3.org/2000/svg">
<path d="M7.33333 4V9.33333H12V8H8.66667V4H7.33333ZM1.73333 10.2647L0.534 10.8687C0.332667 10.346 0.186667 9.79733 0.0993333 9.22867L1.43133 9.12267C1.498 9.516 1.6 9.89733 1.73333 10.2647ZM4.662 15.2653L5.108 13.9993C4.742 13.8227 4.396 13.6147 4.07133 13.3773L3.12933 14.3393C3.60133 14.7027 4.11467 15.014 4.662 15.2653ZM1.116 12.0687C1.40933 12.5627 1.75333 13.022 2.142 13.4407L3.078 12.4853C2.79067 12.1713 2.53533 11.8307 2.312 11.4667L1.116 12.0687ZM7.99733 0C6.13733 0 4.43133 0.642667 3.074 1.708L1.61867 0.252667L0.714667 4.928L5.39133 4.02533L4.02467 2.65933C5.13533 1.82933 6.50733 1.33333 7.99733 1.33333C11.6747 1.33333 14.666 4.324 14.666 8C14.666 11.676 11.6747 14.6667 7.99733 14.6667C7.432 14.6667 6.88533 14.588 6.36067 14.4553L5.91733 15.718C6.58133 15.896 7.27667 16 7.99733 16C12.4167 16 16 12.418 16 8C16 3.582 12.4167 0 7.99733 0V0ZM0 7.89933L1.34333 7.792C1.36133 7.32333 1.42667 6.868 1.53533 6.42733H0.151333C0.0566667 6.90333 0.00666667 7.396 0 7.89933H0Z" fill="#999999"/>
</svg>
