<svg width="16" height="14" viewBox="0 0 16 14" fill="none" xmlns="http://www.w3.org/2000/svg">
<path fill-rule="evenodd" clip-rule="evenodd" d="M16 10.9933L10.846 10.9927L12.6667 13.6593H11.7927L9.96867 10.9927H8.66667L6.84267 13.6593H6L7.82133 10.9927H5.85467V10.326H11.3333V9.65932H13.3333V10.326H15.3333V0.992655H4V1.29066H3.33333V0.325989H16V10.9927V10.9933ZM4.506 4.99332C4.93867 4.99332 5.368 4.85132 5.634 4.70266C6.13733 4.42266 7.43067 3.60732 7.95733 3.28666C8.10067 3.19999 8.288 3.23199 8.39333 3.36266L8.39933 3.36932C8.50867 3.50599 8.496 3.70266 8.37067 3.82266L6.12333 5.96532C5.776 6.29732 5.57533 6.75399 5.55467 7.23332C5.49133 8.70465 5.38067 11.8413 5.33333 13.1227C5.32267 13.4227 5.076 13.66 4.776 13.66H4.77533C4.47933 13.66 4.25133 13.428 4.218 13.1347C4.144 12.48 3.99867 10.9487 3.93333 10.3267C3.90667 10.0707 3.74733 9.91799 3.544 9.91732C3.34133 9.91599 3.19533 10.068 3.17867 10.3227C3.13733 10.9367 3.00133 12.4887 2.95067 13.1367C2.928 13.4307 2.686 13.66 2.39067 13.66H2.39C2.08867 13.66 1.84133 13.4227 1.82867 13.1207C1.764 11.5607 1.58267 7.14532 1.58267 7.14532L0.724667 8.69932C0.631333 8.86865 0.428 8.94199 0.248 8.87265L0.247333 8.87199C0.0953333 8.81332 0 8.66865 0 8.51199L0.0146667 8.40732L0.844 5.47866C0.925333 5.19199 1.18733 4.99399 1.486 4.99399H4.506V4.99332ZM9.33333 6.32665H12.6667V5.65999H9.33333V6.32665ZM9.33333 4.99332H14V4.32665H9.33333V4.99332ZM3.58267 1.65999C4.41 1.65999 5.08267 2.33199 5.08267 3.15999C5.08267 3.98799 4.41 4.65999 3.58267 4.65999C2.75467 4.65999 2.08267 3.98799 2.08267 3.15999C2.08267 2.33199 2.75467 1.65999 3.58267 1.65999ZM9.33333 3.65999H14V2.99332H9.33333V3.65999Z" fill="#999999"/>
</svg>
