<svg width="16" height="14" viewBox="0 0 16 14" fill="none" xmlns="http://www.w3.org/2000/svg">
<path d="M12.088 5.06871L11.4353 5.17937L10.1907 8.94871L10.8687 8.81604L11.1633 7.85337L12.34 7.63137L12.6333 8.47137L13.3333 8.33337L12.088 5.06871ZM11.3493 7.25004L11.756 5.91671L12.1587 7.10071L11.3493 7.25004ZM5.24667 6.58337L5.31467 6.25471L4.75733 6.01137L4.702 6.28337C4.514 6.21204 4.31333 6.16404 4.11067 6.14337C4.11533 5.99137 4.12333 5.84337 4.13533 5.70137L4.758 5.83804L4.756 5.24671L4.20867 5.12537L4.28067 4.81471L3.73733 4.51004C3.69733 4.65137 3.66467 4.79004 3.63133 4.99737L3.01067 4.85937V5.45537L3.564 5.57737C3.54933 5.76671 3.54067 5.96404 3.538 6.16471C2.20467 6.43071 2.54333 8.15204 3.60267 8.26337C4.314 8.33804 4.78867 7.83537 5.06533 7.15604C5.35333 7.40271 5.474 7.74004 5.36667 8.00471C5.26667 8.25004 4.972 8.44271 4.40667 8.31271L4.40733 8.95071C5.03467 9.09004 5.65133 8.95137 5.89133 8.36071C6.126 7.78471 5.85467 7.04271 5.24667 6.58337ZM3.55333 6.86071C3.56933 7.13471 3.59667 7.38937 3.63467 7.61937C3.128 7.61737 3.10733 7.05004 3.55333 6.86071ZM4.16133 7.39671C4.138 7.20804 4.122 7.00337 4.114 6.78604C4.24933 6.79537 4.386 6.82071 4.51467 6.86004C4.426 7.06137 4.30933 7.25604 4.16133 7.39671ZM8 2.13804C6.04133 0.918041 3.056 0.426707 0 0.333374V12.1427C2.62467 12.2227 5.19667 12.5967 7.11133 13.4727C7.67533 13.7314 8.32267 13.7314 8.88933 13.4727C10.804 12.5967 13.3753 12.2227 16 12.1427V0.333374C12.944 0.426707 9.95867 0.918041 8 2.13804ZM1.33333 10.874V1.73804C4.77133 1.99737 6.35133 2.71337 7.33333 3.29404V12.0727C6.31667 11.7087 4.18933 11.0694 1.33333 10.874ZM14.6667 10.874C11.8113 11.0694 9.68333 11.7087 8.66667 12.0734V3.29271C9.63533 2.71871 11.22 1.99804 14.6667 1.73804V10.874Z" fill="#999999"/>
</svg>
