<svg width="16" height="16" viewBox="0 0 16 16" fill="none" xmlns="http://www.w3.org/2000/svg">
<path d="M15.3573 4.88531C14.9544 3.93271 14.3786 3.07799 13.6446 2.34234C12.9106 1.60832 12.0559 1.03089 11.1049 0.627995C10.1181 0.21205 9.07086 0 7.99267 0C6.91447 0 5.86727 0.21205 4.88042 0.629626C3.92783 1.03252 3.0731 1.60995 2.34071 2.34397C1.60669 3.07799 1.03089 3.93435 0.627995 4.88694C0.21205 5.87216 0 6.91936 0 7.99918C0 9.07901 0.21205 10.1262 0.627995 11.1131C1.03089 12.0657 1.60669 12.9204 2.34071 13.656C3.07473 14.39 3.92946 14.9675 4.88042 15.3704C5.86564 15.788 6.91284 16 7.99267 16C9.07086 16 10.1181 15.788 11.1049 15.3704C12.0575 14.9675 12.9122 14.39 13.6446 13.656C14.3786 12.922 14.9544 12.0657 15.3573 11.1131C15.7733 10.1262 15.9853 9.07901 15.9853 7.99918C15.9853 6.91936 15.7733 5.87216 15.3573 4.88531ZM12.7035 12.7149C12.6545 12.7638 12.6056 12.8111 12.555 12.8584C12.0167 11.8357 10.304 10.0251 7.97473 10.0251C5.55083 10.0251 3.9001 11.7704 3.40586 12.8356C3.36345 12.7964 3.32267 12.7556 3.28189 12.7149C2.02427 11.4556 1.33102 9.78041 1.33102 7.99918C1.33102 6.21796 2.02427 4.54277 3.28189 3.28351C4.54114 2.02426 6.21308 1.33102 7.99267 1.33102C9.77226 1.33102 11.4442 2.02426 12.7035 3.28351C13.9611 4.54277 14.6543 6.21796 14.6543 7.99918C14.6543 9.78041 13.9611 11.4556 12.7035 12.7149Z" fill="#999999"/>
</svg>
