<svg width="104" height="24" viewBox="0 0 104 24" fill="none" xmlns="http://www.w3.org/2000/svg">
<g clip-path="url(#clip0)">
<path d="M8.22481 1.70947C11.6235 1.70947 13.7987 2.39323 15.2941 3.82913C16.5176 4.99152 17.3333 6.70093 17.3333 9.09409C17.3333 11.9659 16.1778 14.2907 14.2745 15.7266C12.4392 17.0941 10.0601 17.6411 7.06926 17.6411H1.42743V16.9573C3.53462 16.7522 3.60259 16.6155 3.60259 14.5642V4.7864C3.60259 2.66674 3.3307 2.59836 1.42743 2.39323V1.70947H8.22481ZM5.70978 14.359C5.70978 16.2052 6.45749 16.6838 8.29279 16.6838C12.6431 16.6838 14.8863 13.6753 14.8863 9.36759C14.8863 6.70093 14.0026 4.64964 12.0313 3.48725C10.9438 2.80349 9.51632 2.52999 7.88494 2.52999C6.79736 2.52999 6.1856 2.66674 5.98168 2.87187C5.77776 3.00862 5.64181 3.28212 5.64181 4.23939V14.359H5.70978Z" fill="#727992"/>
<path d="M28.345 15.5212C26.7816 17.5041 25.0823 17.9144 24.3346 17.9144C21.3437 17.9144 19.5764 15.4529 19.5764 12.6494C19.5764 11.0084 20.1882 9.43576 21.1398 8.34174C22.1594 7.17935 23.5189 6.56396 24.7424 6.56396C26.8496 6.56396 28.481 8.41012 28.481 10.3246C28.481 10.8033 28.413 11.0084 28.0052 11.1452C27.5294 11.2135 24.4026 11.487 21.4797 11.5554C21.4117 14.8375 23.383 16.205 25.1503 16.205C26.1699 16.205 27.0535 15.7947 28.0052 14.9742L28.345 15.5212ZM24.1986 7.45285C23.1111 7.45285 21.9555 8.47849 21.6156 10.4614C22.9751 10.4614 24.3346 10.4614 25.762 10.393C26.1699 10.393 26.3738 10.2563 26.3738 9.91439C26.3738 8.68362 25.5581 7.45285 24.1986 7.45285Z" fill="#727992"/>
<path d="M36.2981 9.77762C35.8902 8.34173 35.2105 7.38446 33.715 7.38446C32.8314 7.38446 32.2196 7.99985 32.2196 8.95711C32.2196 9.98275 32.8994 10.5298 34.2588 11.1451C36.366 12.1708 37.3856 12.8545 37.3856 14.4956C37.3856 16.752 35.3464 17.9144 33.4431 17.9144C32.1516 17.9144 31.0641 17.5041 30.5203 17.2306C30.3843 16.5469 30.1804 15.1793 30.1124 14.3588L30.7922 14.2221C31.2 15.7947 32.0837 17.0939 33.783 17.0939C34.7347 17.0939 35.4824 16.4785 35.4824 15.4528C35.4824 14.3588 34.8026 13.8118 33.5111 13.1281C31.8118 12.3075 30.4523 11.487 30.4523 9.77762C30.4523 7.99985 31.9477 6.63232 34.2588 6.63232C35.2784 6.63232 36.0941 6.90583 36.5699 6.9742C36.6379 7.58959 36.8418 9.09386 36.9098 9.70925L36.2981 9.77762Z" fill="#727992"/>
<path d="M39.017 17.5728V16.889C40.5804 16.7523 40.7163 16.6155 40.7163 14.9745V9.91467C40.7163 8.4104 40.6483 8.27364 39.1529 8.06852V7.45313C40.4444 7.248 41.532 6.90612 42.6196 6.49587C42.6196 7.52151 42.6196 8.54715 42.6196 9.57279V14.9745C42.6196 16.6155 42.8235 16.7523 44.3869 16.889V17.5728H39.017ZM41.532 4.1027C40.8523 4.1027 40.2405 3.48732 40.2405 2.80356C40.2405 2.05142 40.8523 1.43604 41.532 1.43604C42.2117 1.43604 42.7555 1.98304 42.7555 2.80356C42.7555 3.48732 42.2117 4.1027 41.532 4.1027Z" fill="#727992"/>
<path d="M48.7372 14.017C48.1254 14.4956 47.9215 14.9742 47.9215 15.2477C47.9215 15.658 48.3294 16.205 49.4169 16.205C50.3006 16.205 51.3202 16.205 52.1359 16.205C53.6993 16.205 55.6705 16.752 55.6705 19.1452C55.6705 21.6751 52.6797 24.0683 49.4169 24.0683C46.698 24.0683 45.2026 22.4272 45.1346 20.9913C45.1346 20.4443 45.3385 19.9657 45.7463 19.6238C46.2222 19.0768 47.1738 18.3247 47.7176 17.846C46.8339 17.5725 46.2222 17.0255 45.8823 16.5469C45.6784 16.205 45.6104 15.7264 45.6104 15.5212C46.562 15.1794 47.3777 14.4956 47.8535 13.8118L48.7372 14.017ZM49.9607 14.2905C47.7176 14.2905 45.8143 12.923 45.8143 10.5982C45.8143 7.79475 48.2614 6.49561 50.1646 6.49561C50.9803 6.49561 51.796 6.70073 52.4758 7.11099C53.5633 7.11099 55.0588 6.90586 55.7385 6.76911L55.8745 6.97424C55.7385 7.38449 55.3307 8.06826 54.9908 8.27338C54.6509 8.27338 53.8352 8.20501 53.4954 8.13663C53.9032 8.68364 54.1751 9.50415 54.1751 10.393C54.2431 12.9913 51.9999 14.2905 49.9607 14.2905ZM50.5045 17.9144C49.281 17.9144 48.8052 18.0512 48.3294 18.4614C47.6496 19.0084 47.1738 19.7606 47.1738 20.4443C47.1738 21.8118 48.5333 22.7691 50.4365 22.7691C52.7477 22.7691 54.0392 21.5383 54.0392 20.0341C54.0392 19.2136 53.6313 18.5298 52.9516 18.2563C52.3398 17.9144 51.5241 17.9144 50.5045 17.9144ZM49.9607 7.24774C48.8731 7.24774 47.9215 8.27338 47.9215 10.1879C47.9215 12.1024 48.8731 13.47 50.2326 13.47C51.3202 13.4016 52.2718 12.5127 52.2718 10.5298C52.2039 8.61526 51.3202 7.24774 49.9607 7.24774Z" fill="#727992"/>
<path d="M63.6915 17.5725V16.8888C65.1189 16.752 65.2549 16.5469 65.2549 14.9059V10.8717C65.2549 9.16227 64.6431 7.99988 63.0117 7.99988C61.9921 7.99988 61.0405 8.61526 60.2928 9.29902V15.0426C60.2928 16.752 60.4287 16.752 61.8562 16.9571V17.6409H56.6222V16.9571C58.2536 16.752 58.3895 16.6836 58.3895 15.0426V9.98279C58.3895 8.41014 58.1856 8.34176 56.8941 8.06826V7.45287C58.1176 7.24774 59.2732 6.90586 60.2928 6.49561C60.2928 7.04261 60.2928 7.86313 60.2928 8.41014C60.7686 8.06826 61.3124 7.72637 61.9242 7.31612C62.6039 6.90586 63.2157 6.56398 63.9634 6.56398C65.9346 6.56398 67.1581 7.99988 67.1581 10.393V15.0426C67.1581 16.6836 67.2941 16.752 68.7215 16.9571V17.6409H63.6915V17.5725Z" fill="#727992"/>
<path d="M69.8091 17.5727V16.8889C71.3725 16.7521 71.5764 16.6154 71.5764 14.9744V3.28205C71.5764 1.77778 71.4405 1.64103 69.8771 1.4359V0.820513C71.1686 0.683761 72.732 0.273504 73.4797 0C73.4797 1.16239 73.4797 2.32479 73.4797 3.48718V15.0427C73.4797 16.6838 73.6156 16.7521 75.179 16.9573V17.641H69.8091V17.5727Z" fill="#727992"/>
<path d="M85.3072 15.5212C83.7438 17.5041 82.0445 17.9144 81.2967 17.9144C78.3059 17.9144 76.5386 15.4529 76.5386 12.6494C76.5386 11.0084 77.1503 9.43576 78.102 8.34174C79.1216 7.17935 80.4811 6.56396 81.7046 6.56396C83.8118 6.56396 85.4431 8.41012 85.4431 10.3246C85.4431 10.8033 85.3752 11.0084 84.9673 11.1452C84.4915 11.2135 81.3647 11.487 78.4418 11.5554C78.3739 14.8375 80.3451 16.205 82.1124 16.205C83.132 16.205 84.0157 15.7947 84.9673 14.9742L85.3072 15.5212ZM81.1608 7.45285C80.0732 7.45285 78.9177 8.47849 78.5778 10.4614C79.9373 10.4614 81.2967 10.4614 82.7242 10.393C83.132 10.393 83.336 10.2563 83.336 9.91439C83.4039 8.68362 82.5203 7.45285 81.1608 7.45285Z" fill="#727992"/>
<path d="M93.2601 9.77762C92.8522 8.34173 92.1725 7.38446 90.6771 7.38446C89.7934 7.38446 89.1816 7.99985 89.1816 8.95711C89.1816 9.98275 89.8614 10.5298 91.2209 11.1451C93.3281 12.1708 94.3477 12.8545 94.3477 14.4956C94.3477 16.752 92.3084 17.9144 90.4052 17.9144C89.1137 17.9144 88.0261 17.5041 87.4823 17.2306C87.3464 16.5469 87.1424 15.1793 87.0745 14.3588L87.7542 14.2221C88.162 15.7947 89.0457 17.0939 90.745 17.0939C91.6967 17.0939 92.4444 16.4785 92.4444 15.4528C92.4444 14.3588 91.7647 13.8118 90.4732 13.1281C88.7738 12.3075 87.4143 11.487 87.4143 9.77762C87.4143 7.99985 88.9098 6.63232 91.2209 6.63232C92.2405 6.63232 93.0562 6.90583 93.532 6.9742C93.6 7.58959 93.8039 9.09386 93.8718 9.70925L93.2601 9.77762Z" fill="#727992"/>
<path d="M102.369 9.77762C101.961 8.34173 101.281 7.38446 99.7856 7.38446C98.9019 7.38446 98.2902 7.99985 98.2902 8.95711C98.2902 9.98275 98.9699 10.5298 100.329 11.1451C102.437 12.1708 103.456 12.8545 103.456 14.4956C103.456 16.752 101.417 17.9144 99.5137 17.9144C98.2222 17.9144 97.1346 17.5041 96.5908 17.2306C96.4549 16.5469 96.251 15.1793 96.183 14.3588L96.8627 14.2221C97.2706 15.7947 98.1542 17.0939 99.8536 17.0939C100.805 17.0939 101.553 16.4785 101.553 15.4528C101.553 14.3588 100.873 13.8118 99.5817 13.1281C97.8823 12.3075 96.5229 11.487 96.5229 9.77762C96.5229 7.99985 98.0183 6.63232 100.329 6.63232C101.349 6.63232 102.165 6.90583 102.641 6.9742C102.708 7.58959 102.912 9.09386 102.98 9.70925L102.369 9.77762Z" fill="#727992"/>
<path d="M43.5033 20.5811H0V21.9486H43.5033V20.5811Z" fill="#727992"/>
<path d="M104 20.5811H57.098V21.9486H104V20.5811Z" fill="#727992"/>
</g>
<defs>
<clipPath id="clip0">
<rect width="104" height="24" fill="white"/>
</clipPath>
</defs>
</svg>
