<svg width="113" height="24" viewBox="0 0 113 24" fill="none" xmlns="http://www.w3.org/2000/svg">
<g clip-path="url(#clip0)">
<path d="M21.1341 20.4939V4.12741H24.1939V5.6929C24.7632 5.19479 25.3325 4.76784 26.0441 4.41204C26.6845 4.05625 27.4672 3.84277 28.25 3.84277C28.8904 3.84277 29.3885 3.98509 29.7443 4.34088C30.1001 4.69668 30.3136 5.12363 30.4559 5.62174C30.5982 6.11985 30.6694 6.68912 30.6694 7.18723V20.4939H27.6096V8.11229C27.6096 7.54303 27.5384 7.04491 27.3249 6.76028C27.1826 6.40449 26.8268 6.26217 26.3287 6.26217C25.9729 6.26217 25.6171 6.33333 25.2613 6.5468C24.9055 6.76028 24.5497 6.97376 24.1939 7.25839V20.4939H21.1341Z" fill="#727992"/>
<path d="M38.0698 20.7074C36.8602 20.7074 35.9351 20.4939 35.2235 19.9958C34.5119 19.4977 34.0138 18.7861 33.7292 17.861C33.4445 16.936 33.3022 15.8686 33.3022 14.6589V9.89126C33.3022 8.68156 33.4445 7.61418 33.7292 6.68912C34.0138 5.76406 34.5119 5.05247 35.2235 4.55436C35.9351 4.05625 36.8602 3.84277 38.0698 3.84277C39.2795 3.84277 40.2046 4.05625 40.9162 4.55436C41.6278 5.05247 42.1259 5.76406 42.4105 6.68912C42.6952 7.61418 42.8375 8.68156 42.8375 9.89126V14.6589C42.8375 15.8686 42.6952 16.936 42.4105 17.861C42.1259 18.7861 41.6278 19.4977 40.9162 19.9958C40.2758 20.4939 39.3507 20.7074 38.0698 20.7074ZM38.0698 18.5015C38.6391 18.5015 39.0661 18.3591 39.2795 18.0034C39.493 17.6476 39.6353 17.2206 39.7065 16.6513C39.7777 16.0821 39.7777 15.5128 39.7777 14.8724V9.74894C39.7777 9.10852 39.7777 8.53925 39.7065 7.96998C39.6353 7.40071 39.493 6.97376 39.2795 6.61796C39.0661 6.26217 38.6391 6.11985 38.0698 6.11985C37.5006 6.11985 37.0736 6.26217 36.789 6.61796C36.5755 6.97376 36.362 7.40071 36.362 7.96998C36.2909 8.53925 36.2909 9.10852 36.2909 9.74894V14.8724C36.2909 15.5128 36.2909 16.0821 36.362 16.6513C36.4332 17.2206 36.5755 17.6476 36.789 18.0034C37.0736 18.288 37.5006 18.5015 38.0698 18.5015Z" fill="#727992"/>
<path d="M45.6839 20.4939V4.12741H48.7437V5.6929C49.313 5.19479 49.8822 4.76784 50.5938 4.41204C51.2343 4.05625 52.017 3.84277 52.7997 3.84277C53.4402 3.84277 53.9383 3.98509 54.2941 4.34088C54.6499 4.69668 54.8633 5.12363 55.0057 5.62174C55.148 6.11985 55.2191 6.68912 55.2191 7.18723V20.4939H52.1593V8.11229C52.1593 7.54303 52.0882 7.04491 51.8747 6.76028C51.7324 6.40449 51.3766 6.26217 50.8073 6.26217C50.4515 6.26217 50.0957 6.33333 49.7399 6.5468C49.3841 6.76028 49.0283 6.97376 48.6725 7.25839V20.4939H45.6839Z" fill="#727992"/>
<path d="M61.908 20.7072C60.556 20.7072 59.4886 20.2803 58.7059 19.4264C57.9231 18.5725 57.425 17.5051 57.2827 16.0819L59.8444 15.2992C59.9867 16.3666 60.2714 17.1493 60.6272 17.6474C60.983 18.1455 61.4811 18.4302 62.1927 18.4302C62.7619 18.4302 63.1889 18.2879 63.4735 17.9321C63.7582 17.5763 63.9005 17.2205 63.9005 16.6512C63.9005 16.1531 63.8293 15.7261 63.6158 15.3703C63.4024 15.0146 63.0466 14.5876 62.6196 14.2318L59.8444 11.8124C59.2752 11.3143 58.777 10.745 58.4213 10.1758C58.0655 9.53534 57.852 8.75259 57.852 7.82753C57.852 6.97362 57.9943 6.19088 58.3501 5.62161C58.7059 5.05234 59.204 4.55423 59.8444 4.26959C60.4849 3.98496 61.1964 3.77148 62.0503 3.77148C63.3312 3.77148 64.3274 4.19844 65.039 5.05234C65.7506 5.90624 66.1064 6.90247 66.2487 8.11216L64.0428 8.96607C63.9716 8.3968 63.8293 7.89869 63.687 7.47174C63.5447 7.04478 63.3312 6.68899 63.0466 6.47551C62.7619 6.26204 62.4061 6.11972 61.9792 6.11972C61.4811 6.11972 61.1253 6.26204 60.7695 6.61783C60.4849 6.97362 60.3425 7.32942 60.3425 7.82753C60.3425 8.11216 60.4137 8.3968 60.556 8.68143C60.6983 8.96607 60.9118 9.2507 61.1964 9.46418L64.1139 12.1682C64.5409 12.524 64.8967 12.951 65.2525 13.3067C65.6083 13.7337 65.8929 14.2318 66.1064 14.7299C66.3199 15.228 66.4622 15.8685 66.4622 16.58C66.4622 17.5051 66.2487 18.2879 65.8929 18.9283C65.5371 19.5687 64.9679 19.9957 64.3274 20.3515C63.6158 20.5649 62.8331 20.7072 61.908 20.7072Z" fill="#727992"/>
<path d="M73.2934 20.7074C72.0126 20.7074 71.0164 20.4227 70.3048 19.9246C69.5932 19.4265 69.0951 18.7149 68.8104 17.7187C68.5258 16.7225 68.3835 15.5128 68.3835 14.1608V10.3894C68.3835 8.9662 68.5258 7.68534 68.8104 6.76028C69.0951 5.76406 69.5932 5.05247 70.3048 4.55436C71.0164 4.05625 72.0126 3.84277 73.2223 3.84277C74.5743 3.84277 75.6417 4.12741 76.2821 4.69668C76.9225 5.26595 77.3495 6.04869 77.563 7.18723C77.7764 8.25461 77.8476 9.53547 77.8476 11.0298V12.3818H71.3722V15.6551C71.3722 16.2955 71.4433 16.8648 71.5856 17.2918C71.7279 17.7187 71.9414 18.0034 72.1549 18.2168C72.4395 18.4303 72.7953 18.5015 73.2223 18.5015C73.6492 18.5015 74.005 18.3591 74.2897 18.1457C74.5031 17.9322 74.7166 17.6476 74.7878 17.2206C74.8589 16.7937 74.9301 16.3667 74.9301 15.7974V14.8012H77.8476V15.4416C77.8476 17.0783 77.4918 18.3591 76.7802 19.3554C76.1398 20.2804 74.9301 20.7074 73.2934 20.7074ZM71.4433 10.7452H74.9301V9.25083C74.9301 8.53925 74.8589 7.96998 74.7878 7.54303C74.7166 7.04491 74.5743 6.76028 74.2897 6.47564C74.0762 6.26217 73.6492 6.11985 73.1511 6.11985C72.653 6.11985 72.2972 6.26217 72.0126 6.47564C71.7279 6.68912 71.5856 7.11607 71.5145 7.61418C71.4433 8.18345 71.3722 8.89504 71.3722 9.8201V10.7452H71.4433Z" fill="#727992"/>
<path d="M80.6939 20.4939V4.12741H83.7537V5.6929C84.323 5.19479 84.8923 4.76784 85.6039 4.41204C86.2443 4.05625 87.027 3.84277 87.8098 3.84277C88.4502 3.84277 88.9483 3.98509 89.3041 4.34088C89.6599 4.69668 89.8734 5.12363 90.0157 5.62174C90.158 6.11985 90.2292 6.68912 90.2292 7.18723V20.4939H87.1693V8.11229C87.1693 7.54303 87.0982 7.04491 86.8847 6.76028C86.7424 6.40449 86.3866 6.26217 85.8173 6.26217C85.4615 6.26217 85.1057 6.33333 84.75 6.5468C84.3942 6.76028 84.0384 6.97376 83.6826 7.25839V20.4939H80.6939Z" fill="#727992"/>
<path d="M96.9893 20.7072C95.6373 20.7072 94.5699 20.2803 93.7871 19.4264C93.0044 18.5725 92.5063 17.5051 92.364 16.0819L94.9257 15.2992C95.068 16.3666 95.3526 17.1493 95.7084 17.6474C96.0642 18.1455 96.5623 18.4302 97.2739 18.4302C97.8432 18.4302 98.2701 18.2879 98.5548 17.9321C98.8394 17.5763 98.9817 17.2205 98.9817 16.6512C98.9817 16.1531 98.9106 15.7261 98.6971 15.3703C98.4836 15.0146 98.1278 14.5876 97.7009 14.2318L94.9257 11.8124C94.3564 11.3143 93.8583 10.745 93.5025 10.1758C93.1467 9.53534 92.9332 8.75259 92.9332 7.82753C92.9332 6.97362 93.0755 6.19088 93.4313 5.62161C93.7871 5.05234 94.2852 4.55423 94.9257 4.26959C95.5661 3.98496 96.2777 3.77148 97.1316 3.77148C98.4124 3.77148 99.4087 4.19844 100.12 5.05234C100.832 5.90624 101.188 6.90247 101.33 8.11216L99.2663 8.89491C99.1952 8.32564 99.0529 7.82753 98.9106 7.40058C98.7682 6.97362 98.5548 6.61783 98.2701 6.40436C97.9855 6.19088 97.6297 6.04856 97.2027 6.04856C96.7046 6.04856 96.3488 6.19088 95.993 6.54667C95.7084 6.90247 95.5661 7.25826 95.5661 7.75637C95.5661 8.041 95.6373 8.32564 95.7796 8.61027C95.9219 8.89491 96.1354 9.17954 96.42 9.39302L99.3375 12.097C99.7645 12.4528 100.12 12.8798 100.476 13.2356C100.832 13.6625 101.116 14.1607 101.33 14.6588C101.543 15.1569 101.686 15.7973 101.686 16.5089C101.686 17.434 101.472 18.2167 101.116 18.8571C100.761 19.4976 100.191 19.9245 99.551 20.2803C98.6259 20.5649 97.8432 20.7072 96.9893 20.7072Z" fill="#727992"/>
<path d="M108.303 20.7074C107.023 20.7074 106.026 20.4227 105.315 19.9246C104.603 19.4265 104.105 18.7149 103.82 17.7187C103.536 16.7225 103.394 15.5128 103.394 14.1608V10.3894C103.394 8.9662 103.536 7.68534 103.82 6.76028C104.105 5.76406 104.603 5.05247 105.315 4.55436C106.026 4.05625 107.023 3.84277 108.232 3.84277C109.584 3.84277 110.652 4.12741 111.292 4.69668C111.933 5.26595 112.36 6.04869 112.573 7.18723C112.786 8.25461 112.858 9.53547 112.858 11.0298V12.3818H106.382V15.6551C106.382 16.2955 106.453 16.8648 106.596 17.2918C106.738 17.7187 106.951 18.0034 107.165 18.2168C107.45 18.4303 107.805 18.5015 108.232 18.5015C108.659 18.5015 109.015 18.3591 109.3 18.1457C109.513 17.9322 109.727 17.6476 109.798 17.2206C109.869 16.7937 109.94 16.3667 109.94 15.7974V14.8012H112.858V15.4416C112.858 17.0783 112.502 18.3591 111.79 19.3554C111.221 20.2804 110.011 20.7074 108.303 20.7074ZM106.525 10.7452H110.011V9.25083C110.011 8.53925 109.94 7.96998 109.869 7.54303C109.798 7.04491 109.656 6.76028 109.371 6.47564C109.157 6.26217 108.73 6.11985 108.232 6.11985C107.734 6.11985 107.378 6.26217 107.094 6.47564C106.809 6.68912 106.667 7.11607 106.596 7.61418C106.525 8.18345 106.453 8.89504 106.453 9.8201V10.7452H106.525Z" fill="#727992"/>
<path d="M13.0938 13.2355H0.783356V0H13.0938V13.2355ZM2.91812 11.1008H10.959V2.13476H2.91812V11.1008Z" fill="#727992"/>
<path d="M14.1606 23.9804H0L7.11587 11.6699L14.1606 23.9804ZM3.70025 21.8456H10.4603L7.11587 15.9394L3.70025 21.8456Z" fill="#727992"/>
</g>
<defs>
<clipPath id="clip0">
<rect width="113" height="23.9805" fill="white"/>
</clipPath>
</defs>
</svg>
