<svg width="137" height="24" viewBox="0 0 137 24" fill="none" xmlns="http://www.w3.org/2000/svg">
<path d="M23.9649 12C23.9649 18.63 18.6028 24 11.9825 24C5.36212 24 0 18.63 0 12C0 5.37003 5.36212 0 11.9825 0C18.6028 0 23.9649 5.37003 23.9649 12Z" fill="#727992"/>
<path d="M13.5801 12H10.1851V8.40002H13.5801C14.5687 8.40002 15.3775 9.20999 15.3775 10.2C15.3775 11.19 14.5687 12 13.5801 12ZM13.5801 6H7.78864V18H10.1851V14.4H13.5801C15.8968 14.4 17.774 12.52 17.774 10.2C17.774 7.87999 15.8968 6 13.5801 6Z" fill="white"/>
<path d="M38.6778 9.77914C38.6778 8.7933 37.9172 8.19578 36.9327 8.19578H34.2927V11.3475H36.9327C37.9172 11.3475 38.6778 10.7501 38.6778 9.77914ZM31.8018 17.9498V6H37.2907C39.8412 6 41.2284 7.71782 41.2284 9.77914C41.2284 11.8256 39.8263 13.5433 37.2907 13.5433H34.3076V17.9498H31.8018Z" fill="#727992"/>
<path d="M42.735 17.9503V9.24184H44.9723V10.392C45.5838 9.66002 46.6279 9.03271 47.687 9.03271V11.2135C47.5229 11.1837 47.329 11.1687 47.0754 11.1687C46.3296 11.1687 45.3452 11.587 44.9873 12.1397V17.9652H42.735V17.9503Z" fill="#727992"/>
<path d="M55.1897 13.484C55.1897 12.1695 54.4136 11.0194 53.0116 11.0194C51.6246 11.0194 50.849 12.1695 50.849 13.484C50.849 14.8284 51.6246 15.9636 53.0116 15.9636C54.4136 15.9636 55.1897 14.8134 55.1897 13.484ZM48.5222 13.484C48.5222 11.0791 50.2076 9.03271 52.9968 9.03271C55.8156 9.03271 57.5013 11.0791 57.5013 13.484C57.5013 15.8889 55.8156 17.9503 52.9968 17.9503C50.2076 17.9503 48.5222 15.8889 48.5222 13.484Z" fill="#727992"/>
<path d="M65.0183 14.9923V11.9899C64.6455 11.4223 63.8404 11.0189 63.1093 11.0189C61.8269 11.0189 60.9464 12.0197 60.9464 13.4836C60.9464 14.9624 61.8269 15.9632 63.1093 15.9632C63.8404 15.9632 64.6455 15.5599 65.0183 14.9923ZM65.0183 17.9498V16.6503C64.3474 17.5017 63.4371 17.9498 62.3934 17.9498C60.2602 17.9498 58.6348 16.3366 58.6348 13.4836C58.6348 10.7202 60.2305 9.03228 62.3934 9.03228C63.3929 9.03228 64.3474 9.45053 65.0183 10.3318V6H67.2704V17.9498H65.0183Z" fill="#727992"/>
<path d="M75.2057 17.9496V16.665C74.624 17.2924 73.61 17.9496 72.2231 17.9496C70.3584 17.9496 69.4785 16.9339 69.4785 15.2758V9.24121H71.7154V14.3946C71.7154 15.5746 72.3276 15.963 73.2821 15.963C74.1467 15.963 74.8328 15.485 75.2209 14.992V9.24121H77.4585V17.9496H75.2057Z" fill="#727992"/>
<path d="M79.1136 13.484C79.1136 10.8849 81.0081 9.03271 83.6178 9.03271C85.3629 9.03271 86.4074 9.79447 86.9739 10.5713L85.5124 11.9454C85.1098 11.348 84.4983 11.0343 83.7223 11.0343C82.3652 11.0343 81.4252 12.0202 81.4252 13.4989C81.4252 14.9777 82.3804 15.9785 83.7223 15.9785C84.4983 15.9785 85.1098 15.62 85.5124 15.0524L86.9739 16.4266C86.4074 17.2034 85.3629 17.9801 83.6178 17.9801C81.0081 17.9503 79.1136 16.098 79.1136 13.484Z" fill="#727992"/>
<path d="M88.8981 15.6051V11.1837H87.4961V9.22689H88.8981V6.91162H91.1357V9.24178H92.8504V11.1986H91.1357V15.0225C91.1357 15.5752 91.4186 15.9785 91.9111 15.9785C92.2389 15.9785 92.5675 15.859 92.6864 15.7096L93.1637 17.4125C92.8359 17.7112 92.2389 17.9652 91.2996 17.9652C89.7184 17.9502 88.8981 17.1436 88.8981 15.6051Z" fill="#727992"/>
<path d="M107.14 17.9498V12.7965H101.606V17.9498H99.115V6H101.606V10.6156H107.14V6H109.66V17.9498H107.14Z" fill="#727992"/>
<path d="M117.641 17.9496V16.665C117.059 17.2924 116.044 17.9496 114.657 17.9496C112.793 17.9496 111.913 16.9339 111.913 15.2758V9.24121H114.15V14.3946C114.15 15.5746 114.762 15.963 115.716 15.963C116.582 15.963 117.268 15.485 117.655 14.992V9.24121H119.893V17.9496H117.641Z" fill="#727992"/>
<path d="M127.812 17.9503V12.6027C127.812 11.4227 127.2 11.0194 126.246 11.0194C125.366 11.0194 124.695 11.5123 124.307 12.0052V17.9503H122.069V9.24184H124.307V10.3322C124.859 9.70484 125.903 9.03271 127.275 9.03271C129.154 9.03271 130.049 10.0932 130.049 11.7363V17.9503H127.812Z" fill="#727992"/>
<path d="M132.734 15.6051V11.1837H131.332V9.22689H132.734V6.91162H134.971V9.24178H136.687V11.1986H134.971V15.0225C134.971 15.5752 135.255 15.9785 135.747 15.9785C136.075 15.9785 136.403 15.859 136.523 15.7096L137 17.4125C136.672 17.7112 136.075 17.9652 135.135 17.9652C133.555 17.9502 132.734 17.1436 132.734 15.6051Z" fill="#727992"/>
</svg>
