<svg width="167" height="24" viewBox="0 0 167 24" fill="none" xmlns="http://www.w3.org/2000/svg">
<path d="M62.9827 9.63596V20.011H59.1721V9.63596H55.3616V6.30811H66.7932V9.63596H62.9827Z" fill="#727992"/>
<path d="M75.6848 15.9001H69.6268C69.7245 17.0747 70.4084 17.5641 71.3858 17.5641C72.2645 17.5641 73.0467 17.3684 74.0233 16.879L75.3917 19.1301C74.1212 19.9131 72.8508 20.3047 71.1899 20.3047C68.0635 20.3047 66.4025 18.1513 66.4025 14.9214C66.4025 11.3978 68.3566 9.53809 71.0927 9.53809C73.9261 9.53809 75.6848 11.3978 75.6848 15.215C75.6848 15.5087 75.6848 15.7044 75.6848 15.9001ZM70.9947 12.0829C70.213 12.0829 69.7245 12.6702 69.6268 13.649H72.5576C72.3625 12.6702 72.0693 12.0829 70.9947 12.0829Z" fill="#727992"/>
<path d="M82.2309 20.2068C79.2017 20.2068 77.4429 18.2492 77.4429 14.8235C77.4429 11.6914 79.0065 9.53809 82.3281 9.53809C84.2828 9.53809 85.3574 10.419 86.2368 11.8872L83.7938 13.7468C83.3055 12.866 83.0124 12.3766 82.2309 12.3766C81.3515 12.3766 80.8625 13.2575 80.8625 14.9214C80.8625 16.5853 81.3515 17.3684 82.3281 17.3684C83.0124 17.3684 83.5007 16.9768 84.0869 15.998L86.334 17.7599C85.1615 19.5217 83.9897 20.2068 82.2309 20.2068Z" fill="#727992"/>
<path d="M94.1507 20.0111V14.1385C94.1507 12.7682 93.6624 12.4745 92.9782 12.4745C92.1968 12.4745 91.8057 12.8661 91.8057 14.1385V20.0111H88.2888V7.18915L91.8057 5.81885V10.517C92.4899 10.0276 93.1741 9.63609 94.3466 9.63609C96.5937 9.63609 97.6683 11.1043 97.6683 13.8448V20.0111H94.1507Z" fill="#727992"/>
<path d="M106.169 20.2067C102.065 20.2067 99.9154 17.1725 99.9154 13.1596C99.9154 8.75499 102.456 6.1123 106.169 6.1123C109.491 6.1123 110.858 7.58047 111.836 10.1253L108.416 11.4956C107.928 10.2232 107.439 9.44019 106.169 9.44019C104.605 9.44019 103.921 11.0062 103.921 13.1596C103.921 15.2149 104.605 16.8788 106.266 16.8788C107.439 16.8788 107.928 16.1937 108.709 14.9213L111.934 16.5853C110.956 18.4449 109.393 20.2067 106.169 20.2067Z" fill="#727992"/>
<path d="M120.532 13.649C120.043 13.1596 119.554 12.7681 118.87 12.7681C117.991 12.7681 117.502 13.1596 117.502 14.432V20.0111H113.985V9.73383H117.502V10.5169C118.089 9.92964 118.773 9.53809 119.652 9.53809C120.434 9.53809 120.922 9.73383 121.313 9.92964L120.532 13.649Z" fill="#727992"/>
<path d="M128.837 20.011V19.3259C128.25 19.8153 127.469 20.2068 126.296 20.2068C124.049 20.2068 122.974 18.7386 122.974 15.998V9.73389H126.492V15.6065C126.492 16.9768 126.98 17.2705 127.664 17.2705C128.348 17.2705 128.837 16.879 128.837 15.6065V9.73389H132.354V20.011H128.837Z" fill="#727992"/>
<path d="M140.854 20.0111V14.1384C140.854 12.7681 140.366 12.4744 139.682 12.4744C138.9 12.4744 138.509 12.866 138.509 14.1384V20.0111H134.992V9.73383H138.509V10.419C139.193 9.92964 139.877 9.53809 141.05 9.53809C143.297 9.53809 144.372 11.0063 144.372 13.7468V20.0111H140.854Z" fill="#727992"/>
<path d="M151.211 20.2068C148.182 20.2068 146.424 18.2492 146.424 14.8235C146.424 11.6914 147.987 9.53809 151.309 9.53809C153.263 9.53809 154.338 10.419 155.217 11.8872L152.775 13.7468C152.286 12.866 151.992 12.3766 151.211 12.3766C150.332 12.3766 149.843 13.2575 149.843 14.9214C149.843 16.5853 150.332 17.3684 151.309 17.3684C151.992 17.3684 152.482 16.9768 153.067 15.998L155.315 17.7599C154.142 19.5217 153.068 20.2068 151.211 20.2068Z" fill="#727992"/>
<path d="M163.229 20.0111V14.1385C163.229 12.7682 162.74 12.4745 162.056 12.4745C161.275 12.4745 160.884 12.8661 160.884 14.1385V20.0111H157.367V7.18915L160.884 5.81885V10.517C161.568 10.0276 162.252 9.63609 163.425 9.63609C165.672 9.63609 166.746 11.1043 166.746 13.8448V20.0111H163.229Z" fill="#727992"/>
<path d="M0.451904 0.435547V8.26576H8.26839V23.9263H16.0848V8.26576H23.9013V0.435547H0.451904Z" fill="#727992"/>
<path d="M31.717 16.0958V8.26562H23.9005V23.926H47.3499V16.0958H31.717Z" fill="#727992"/>
<path d="M47.3498 0.435547H31.7169V8.2658H47.3498V0.435547Z" fill="#727992"/>
</svg>
