<svg width="98" height="24" viewBox="0 0 98 24" fill="none" xmlns="http://www.w3.org/2000/svg">
<path d="M43.2188 3.04423C42.4042 2.23049 41.4371 1.58499 40.3728 1.1446C39.3084 0.704202 38.1677 0.477537 37.0156 0.477539H24.2195V23.8459H32.9921V9.24064H35.8043C36.5805 9.24064 37.3249 9.54835 37.8741 10.0962L40.9041 13.121C41.4537 13.6684 41.7632 14.4113 41.7647 15.1865V23.8459H50.5372V13.9766C50.5357 11.652 49.6101 9.42317 47.9638 7.78018L43.2188 3.04423Z" fill="#727992"/>
<path d="M88.5516 0.477539V9.13694C88.5503 9.91207 88.2405 10.655 87.6911 11.2023L84.6587 14.2271C84.3875 14.4984 84.0651 14.7136 83.7104 14.8604C83.3557 15.0072 82.975 15.0827 82.5913 15.0827H78.3773C79.2902 13.6713 79.7771 12.0271 79.779 10.3467V0.477539H71.0064V9.13694C71.0051 9.91207 70.6953 10.655 70.1459 11.2023L67.1136 14.2271C66.8423 14.4984 66.5199 14.7136 66.1652 14.8604C65.8105 15.0072 65.4305 15.0827 65.0461 15.0827H62.2341V0.477539H53.4615V23.8459H66.2575C68.5848 23.8459 70.8167 22.9227 72.4625 21.2792L75.393 18.3534V23.8459H83.8027C86.13 23.8459 88.3619 22.9227 90.0076 21.2792L94.7508 16.5432C96.3972 14.9002 97.3229 12.6714 97.3241 10.3467V0.477539H88.5516Z" fill="#727992"/>
<path d="M0.825378 9.2407H6.67378V23.8459H15.4463V9.2407H21.2947V0.477539H0.825378V9.2407Z" fill="#727992"/>
</svg>
