<svg width="12" height="12" viewBox="0 0 12 12" fill="none" xmlns="http://www.w3.org/2000/svg">
<path fill-rule="evenodd" clip-rule="evenodd" d="M2.64768 1.28114C2.64768 1.98869 2.05498 2.56227 1.32384 2.56227C0.592704 2.56227 0 1.98869 0 1.28114C0 0.573584 0.592704 0 1.32384 0C2.05498 0 2.64768 0.573584 2.64768 1.28114ZM0.0426928 11.9575H2.60497V3.41661H0.0426928V11.9575ZM9.43769 11.9575H12V7.13446C12 5.98059 11.7292 5.15895 11.1852 4.54657C10.6445 3.93504 9.93648 3.69162 9.06104 3.69162C7.90972 3.69162 7.07015 4.2707 6.54489 5.12479H6.49193L6.33564 3.41661H4.31315C4.34731 4.2707 4.31315 11.9575 4.31315 11.9575H6.87542V6.6092C7.08724 5.94557 7.50916 5.61418 8.17449 5.61418C9.01406 5.61418 9.43769 6.20607 9.43769 7.39496V11.9575Z" fill="#7A7A7A"/>
</svg>

