<svg width="12" height="11" viewBox="0 0 12 11" fill="none" xmlns="http://www.w3.org/2000/svg">
<path d="M11.0422 1.62187L12 0.701562V0.5H8.68281L6.31875 6.4125L3.62969 0.5H0.151562V0.701562L1.27031 2.05469C1.37969 2.15469 1.43594 2.30156 1.42188 2.44844V7.76562C1.45625 7.95781 1.39531 8.15313 1.26094 8.29219L0 9.82812V10.0266H3.57188V9.825L2.3125 8.29375C2.24502 8.22524 2.19427 8.14209 2.16419 8.05076C2.1341 7.95943 2.12551 7.86238 2.13906 7.76719V3.16719L5.275 10.0297H5.63906L8.33594 3.16719V8.63437C8.33594 8.77812 8.33594 8.80781 8.24219 8.90312L7.27188 9.84531V10.0469H11.9781V9.84531L11.0422 8.925C10.9609 8.8625 10.9188 8.75781 10.9359 8.65625V1.89062C10.9278 1.84041 10.9334 1.78895 10.9521 1.74165C10.9708 1.69436 11.0019 1.65298 11.0422 1.62187Z" fill="#7A7A7A"/>
</svg>
