<svg width="12" height="11" viewBox="0 0 12 11" fill="none" xmlns="http://www.w3.org/2000/svg">
<path d="M12 1.91225C11.5584 2.10938 11.084 2.2426 10.586 2.30253C11.0943 1.99578 11.4847 1.51003 11.6685 0.931266C11.1852 1.21998 10.6565 1.4234 10.1051 1.53273C9.65602 1.05104 9.01622 0.75 8.30808 0.75C6.94842 0.75 5.84606 1.85978 5.84606 3.22854C5.84606 3.42283 5.86786 3.61198 5.90981 3.79343C3.86372 3.69004 2.04966 2.70329 0.835359 1.20371C0.623484 1.56978 0.502078 1.9956 0.502078 2.44977C0.502078 3.30971 0.93675 4.06833 1.59731 4.51284C1.20635 4.50051 0.823992 4.3942 0.482156 4.20278C0.482016 4.21316 0.482016 4.22355 0.482016 4.23398C0.482016 5.43488 1.33064 6.43668 2.45686 6.66438C2.09432 6.76365 1.71404 6.77817 1.34508 6.70685C1.65834 7.69157 2.56758 8.40814 3.64486 8.4282C2.80228 9.09295 1.7407 9.48922 0.587297 9.48922C0.388547 9.48922 0.192609 9.47747 0 9.45458C1.08952 10.1578 2.38359 10.5682 3.77391 10.5682C8.30236 10.5682 10.7786 6.79133 10.7786 3.51599C10.7786 3.40849 10.7763 3.3016 10.7715 3.19532C11.2535 2.84453 11.6695 2.41005 12 1.91225Z" fill="white"/>
</svg>

