<svg width="12" height="10" viewBox="0 0 12 10" fill="none" xmlns="http://www.w3.org/2000/svg">
<path d="M11.88 2.68214C11.88 2.68214 11.76 1.85714 11.4 1.50357C10.96 1.03214 10.44 1.03214 10.2 0.992857C8.52 0.875 6 0.875 6 0.875C6 0.875 3.48 0.875 1.8 0.992857C1.56 1.03214 1.04 1.03214 0.6 1.50357C0.24 1.85714 0.12 2.68214 0.12 2.68214C0.12 2.68214 0 3.625 0 4.56786V5.43214C0 6.375 0.12 7.35714 0.12 7.35714C0.12 7.35714 0.24 8.18214 0.6 8.53571C1.04 9.00714 1.64 9.00714 1.92 9.04643C2.88 9.08571 6 9.125 6 9.125C6 9.125 8.52 9.125 10.2 9.00714C10.44 8.96786 10.96 8.96786 11.4 8.49643C11.76 8.14286 11.88 7.31786 11.88 7.31786C11.88 7.31786 12 6.375 12 5.43214V4.56786C12 3.625 11.88 2.68214 11.88 2.68214ZM4.76 6.53214V3.23214L8 4.88214L4.76 6.53214Z" fill="#7A7A7A"/>
</svg>
